<?xml version="1.0" encoding="UTF-8"?><svg id="Layer_1" xmlns="http://www.w3.org/2000/svg" xmlns:xlink="http://www.w3.org/1999/xlink" viewBox="0 0 708.7 384.5"><defs><style>.flevonatuur-logo-fill-1{fill:url(#linear-gradient-2);}.flevonatuur-logo-fill-2{fill:#adce70;}.flevonatuur-logo-fill-3{fill:#035a60;}.flevonatuur-logo-fill-4{fill:url(#linear-gradient);}</style><linearGradient id="linear-gradient" x1="278.55" y1="3242.47" x2="329.39" y2="3328.19" gradientTransform="translate(0 3460.68) scale(1 -1)" gradientUnits="userSpaceOnUse"><stop offset="0" stop-color="#adce70"/><stop offset=".13" stop-color="#a4c66d"/><stop offset=".31" stop-color="#8cb26d"/><stop offset=".51" stop-color="#689369"/><stop offset=".73" stop-color="#376e60"/><stop offset=".92" stop-color="#014c50"/></linearGradient><linearGradient id="linear-gradient-2" x1="407.75" y1="3390.97" x2="498.26" y2="3440.19" gradientTransform="translate(0 3460.68) scale(1 -1)" gradientUnits="userSpaceOnUse"><stop offset="0" stop-color="#014c50"/><stop offset=".21" stop-color="#3b6d60"/><stop offset=".45" stop-color="#6a8f68"/><stop offset=".66" stop-color="#8eab6b"/><stop offset=".85" stop-color="#a5be6b"/><stop offset="1" stop-color="#aec56b"/></linearGradient></defs><g><path class="flevonatuur-logo-fill-4" d="M275,215.2c30.5,6.5,51.6-19.5,58.1-50l8.1-40.8-35.7,9.9-21.6,26.7-11.6,53.5,2.7,.7Z"/><path class="flevonatuur-logo-fill-2" d="M461.9,93.9s-13.8,15.6-88.6,13.1c-85.7-2.9-91.7,64.6-91.7,64.6,0,0,27.3-31.5,85.5-20,95.3,18.9,94.8-57.7,94.8-57.7Z"/><path class="flevonatuur-logo-fill-1" d="M399.9,48.7s48-1.5,79.9-48.7c0,0,28,66.3-34.1,81.7-52.5,13.1-87.8-20.2-87.8-20.2l42-12.8Z"/><path class="flevonatuur-logo-fill-2" d="M264.3,129.3s20.3-34.4,83-40.9c0,0,20-1.7,35.5-1.5,15.7,.3,33.4,1.4,53.6-2.6,17.1-3.4,45.2-11.7,48.9-42.6,0,0-23.6,31-66.5,12.3-48.8-21.3-83.6-14.4-83.6-14.4,0,0-82.3,8.9-70.9,89.7Z"/></g><g><g><path class="flevonatuur-logo-fill-3" d="M59.6,226.2v22.5H25.7v7.9h28.1v22.5H25.7v29.3H0v-82.3H59.6v.1Z"/><path class="flevonatuur-logo-fill-3" d="M67.9,284.3v-61.9h25v62.1c0,4.1,1.4,6.4,4.3,6.4,1.6,0,3.8-.7,6.9-2l5.2,16.3c-5.1,3.7-13.4,5.1-19.1,5.1-20.9,.1-22.3-13.5-22.3-26Z"/><path class="flevonatuur-logo-fill-3" d="M109.2,278.5c0-17.9,10.9-36,33-36,13.5,0,23,6.4,23,20.9,0,17-17.8,21.4-30.6,22.6,1,3.7,4.5,6.1,9.8,6.1s10.5-2.1,15.1-5.1l6.3,16.3c.2-.1-9.9,7.1-25.2,7.1-22.6,0-31.4-13.1-31.4-31.9Zm34.8-15.3c0-2-1.2-3.3-3.2-3.3-3.5,0-6.9,3.3-7.3,11.5,6.7-.7,10.5-4.7,10.5-8.2Z"/><path class="flevonatuur-logo-fill-3" d="M171.7,287.2v-42.7h25.1v40.6c0,4.7,.7,5.9,2.8,5.9,4.6,0,5.3-8.2,5.3-17s-2-20.8-4.2-29.6h24.5c2.5,8.5,4.2,20.4,4.2,29.3,0,24.6-11.6,36.3-32.7,36.3-17.2,.1-25-7.6-25-22.8Z"/><path class="flevonatuur-logo-fill-3" d="M234.7,277.3c0-26.1,17.6-34.8,31.6-34.8,10.3,0,30.2,3.1,30.2,32.5,0,22.9-14.2,35.4-31.9,35.4s-29.9-10.6-29.9-33.1Zm36-.5c0-11.8-1.2-16.6-5.3-16.6-3.6,0-5.1,5.3-5.1,14.4,0,10,.5,17.9,5.2,17.9,3.8,0,5.2-4.1,5.2-15.7Z"/></g><g><path class="flevonatuur-logo-fill-2" d="M385.2,293.5h.1v-58.9l-6.6-.4v-7.8h23v7.3l-3.7,.5c-2.4,.4-3.1,1-3.1,3.7v70.8h-10.8l-41.7-68.3h-.1v60.1l6.6,.4v7.8h-23v-7.3l3.7-.5c2.2-.3,3.1-.9,3.1-3.3v-63l-6.4-.4v-7.8h18.1l40.8,67.1Z"/><path class="flevonatuur-logo-fill-2" d="M464.3,298.2c0,2.4,.6,3.2,2.6,3.3l4.2,.2v6.9h-15.2v-7.3l-.4-.1c-3.1,4.5-8.4,9.2-18.1,9.2-17.4,0-24.7-11.9-24.7-29.8,0-21.9,10.3-35.1,31.3-35.1,3.8,0,12.4,1,20.3,4v48.7h0Zm-9.5-42.3c-2.2-1-7.2-2.1-12.4-2.1-14.8,0-19.6,12.5-19.6,27.2,0,10.1,3,21.3,15.7,21.3,10.4,0,16.2-7.1,16.2-14.7v-31.7h.1Z"/><path class="flevonatuur-logo-fill-2" d="M496.5,291.6c0,8.2,3.1,10.5,8.9,10.5,4.2,0,7.4-1.5,9.5-2.7l2.8,6.9c-3.6,2.5-9,4.1-14.2,4.1-16.2,0-16.7-9.5-16.7-18.6v-36.3h-8.8l1.2-7.7c7.9-.7,10-7.4,12-14.5h5.2v13.9h17.6l-1.2,8.3h-16.3v36.1Z"/><path class="flevonatuur-logo-fill-2" d="M576.6,297.3c0,3.1,.5,3.8,2.8,4.1l3.6,.4v6.9h-15.5v-8.2h-.1c-4.1,7.3-11.6,9.9-19.1,9.9-13.2,0-19.9-6.9-19.9-21.2v-30.9c0-2.7-.7-3.5-3.1-3.6l-3.7-.2v-7.3h16.5v39.3c0,9.9,1.9,15.5,12,15.5,9.4,0,17.1-7.3,17.1-17.1v-26.6c0-2.7-.7-3.5-3.1-3.6l-3.7-.2v-7.3h16.3v50.1h-.1Z"/><path class="flevonatuur-logo-fill-2" d="M647.5,297.3c0,3.1,.5,3.8,2.8,4.1l3.6,.4v6.9h-15.5v-8.2h-.3c-4.1,7.3-11.6,9.9-19.1,9.9-13.2,0-19.9-6.9-19.9-21.2v-30.9c0-2.7-.7-3.5-3.1-3.6l-3.7-.2v-7.3h16.5v39.3c0,9.9,1.9,15.5,12,15.5,9.4,0,17.1-7.3,17.1-17.1v-26.6c0-2.7-.7-3.5-3.1-3.6l-3.7-.2v-7.3h16.3v50.1h.1Z"/><path class="flevonatuur-logo-fill-2" d="M680.6,270v30.9l9.2,.4v7.4h-25.1v-6.9l3.2-.4c2.3-.3,3.2-1,3.2-3.7v-39.6c0-2.5-.6-3.2-2.7-3.3l-4.1-.2v-7.3h15.5v9.2c2.3-6.1,8.2-10.9,17.4-10.9,3.2,0,8.2,.9,11.5,2.8v17.3l-9.2,.9v-8.3c0-1.6-.1-2.2-1.4-2.7-1.2-.5-2.6-.6-4.2-.6-8-.1-13.3,6.5-13.3,15Z"/></g></g><g><path class="flevonatuur-logo-fill-3" d="M67,342l9.1,27.7h0l8.9-27.7h3.9l-10.9,32.2h-4.2l-10.9-32.2h4.1Z"/><path class="flevonatuur-logo-fill-3" d="M89.5,363.2c0-8.6,4.1-13.8,12.1-13.8,1.5,0,4.9,.4,8,1.5v19l.4,4.2h-3.4l-.3-2.9h-.1c-1.3,1.9-3.5,3.6-7.2,3.6-7.2,.2-9.5-5.2-9.5-11.6Zm16.4,3.4v-13.3c-.9-.4-2.8-.9-4.8-.9-5.8,0-7.8,4.7-7.8,10.9,0,4.2,1.3,8.6,6.3,8.6,4.1,.1,6.3-2.6,6.3-5.3Z"/><path class="flevonatuur-logo-fill-3" d="M120.4,340.6v15.8h0c1.3-3.2,4.2-6.9,9.4-6.9,4.4,0,6.3,2.7,6.3,6.2,0,3.3-1.7,7.1-6,9.2l6.1,9.4h-4.4l-5.2-7.9c-1.4,.3-4.4,.6-6.3,.6v7.3h-3.8v-33.7h3.9Zm12,15.6c0-2.2-1-3.5-3.6-3.5-4.7,0-8.3,5.9-8.5,11.3,9,.1,12.1-3.8,12.1-7.8Z"/><path class="flevonatuur-logo-fill-3" d="M139.9,363.2c0-8.6,4.1-13.8,12.1-13.8,1.5,0,4.9,.4,8,1.5v19l.4,4.2h-3.4l-.3-2.9h-.1c-1.3,1.9-3.5,3.6-7.2,3.6-7.3,.2-9.5-5.2-9.5-11.6Zm16.3,3.4v-13.3c-.9-.4-2.8-.9-4.8-.9-5.8,0-7.8,4.7-7.8,10.9,0,4.2,1.3,8.6,6.3,8.6,4.2,.1,6.3-2.6,6.3-5.3Z"/><path class="flevonatuur-logo-fill-3" d="M166.7,350.2h3.3l.4,3.5c1.8-2.7,4.7-4.2,7.8-4.2,5,0,7.7,2.8,7.7,8.3v16.4h-3.8v-15.3c0-3.6-.8-6.5-4.8-6.5-3.7,0-6.5,3.1-6.5,6v15.8h-3.8v-20.4l-.3-3.6Z"/><path class="flevonatuur-logo-fill-3" d="M193,367.7v-27.1h3.8v9.6h6.9v3h-6.9v14.6c0,3.3,1.4,4.2,3.6,4.2,1.6,0,2.9-.7,3.6-1.2l1.2,2.6c-1.4,1-3.6,1.6-5.5,1.6-6-.1-6.7-3.3-6.7-7.3Z"/><path class="flevonatuur-logo-fill-3" d="M208.5,343.3c0-1.4,1.1-2.5,2.5-2.5,1.5,0,2.5,1.1,2.5,2.5,0,1.5-1.1,2.6-2.6,2.6-1.4,0-2.4-1.1-2.4-2.6Zm4.4,6.9v24.1h-3.8v-24.1h3.8Z"/><path class="flevonatuur-logo-fill-3" d="M218.8,362.6c0-7.2,4-13.1,11.2-13.1,4.5,0,7.1,2.4,7.1,6,0,7.9-10,8.5-14.5,8.4,.2,3.9,2.1,8,7.2,8,3.3,0,5.3-1.6,6.2-2.2l1.5,2.6c-1.2,1-4,2.7-7.8,2.7-7.7-.1-10.9-5.2-10.9-12.4Zm14.7-6.7c0-2.3-1.5-3.6-3.7-3.6-5.2,0-7.2,4.9-7.3,8.7,2.7,.2,11-.2,11-5.1Z"/><path class="flevonatuur-logo-fill-3" d="M251.4,349.5c7.7,0,11,4.3,11,12.5s-3.7,13-9.8,13c-2.4,0-4.7-.8-6.2-1.8v11.3h-3.8v-33.5c3.3-1,6.3-1.5,8.8-1.5Zm7.2,13c0-5.2-1.3-9.8-7.3-9.8-1.6,0-3.5,.3-4.9,.8v16.1c1.3,1.3,3.9,2.2,6,2.2,3.5,0,6.2-2.6,6.2-9.3Z"/><path class="flevonatuur-logo-fill-3" d="M267,363.2c0-8.6,4.1-13.8,12.1-13.8,1.5,0,4.9,.4,8,1.5v19l.4,4.2h-3.4l-.3-2.9h-.1c-1.3,1.9-3.5,3.6-7.2,3.6-7.2,.2-9.5-5.2-9.5-11.6Zm16.4,3.4v-13.3c-.9-.4-2.8-.9-4.8-.9-5.8,0-7.8,4.7-7.8,10.9,0,4.2,1.3,8.6,6.3,8.6,4.1,.1,6.3-2.6,6.3-5.3Z"/><path class="flevonatuur-logo-fill-3" d="M293.9,350.2h3.3l.4,3.6c.9-2.5,3.3-4.3,6.1-4.3,1.6,0,3,.4,3.8,.9l-1,3.2c-.9-.5-2.1-.9-3.3-.9-3.1,0-5,2.8-5.2,6.1v15.5h-3.8v-20.8l-.3-3.3Z"/><path class="flevonatuur-logo-fill-3" d="M315.1,340.6v15.8h0c1.3-3.2,4.2-6.9,9.4-6.9,4.4,0,6.3,2.7,6.3,6.2,0,3.3-1.7,7.1-6,9.2l6.1,9.4h-4.4l-5.2-7.9c-1.4,.3-4.4,.6-6.3,.6v7.3h-3.8v-33.7h3.9Zm12,15.6c0-2.2-1-3.5-3.6-3.5-4.7,0-8.3,5.9-8.5,11.3,8.9,.1,12.1-3.8,12.1-7.8Z"/><path class="flevonatuur-logo-fill-3" d="M346.4,366.5v-16.3h3.8v15c0,3.5,.2,6.7,4.5,6.7,5.2,0,6.9-5.6,6.9-10.9,0-4.4-.9-7.8-1.6-10.8h3.8c.9,3,1.6,6.5,1.6,10.3,0,8.6-3.6,14.5-11.1,14.5-5.3-.1-7.9-2.5-7.9-8.5Z"/><path class="flevonatuur-logo-fill-3" d="M370.1,362c0-10,6-12.5,10.8-12.5,3.3,0,9.9,1.1,9.9,12,0,9.4-4.7,13.4-10.8,13.4s-9.9-4.1-9.9-12.9Zm16.9,.3c0-5.8-1.7-9.8-6.4-9.8s-6.6,3.8-6.6,9.1c0,4.8,.9,10.5,6.4,10.5,4.6-.1,6.6-4.5,6.6-9.8Z"/><path class="flevonatuur-logo-fill-3" d="M395.5,362c0-10,6-12.5,10.8-12.5,3.3,0,9.9,1.1,9.9,12,0,9.4-4.7,13.4-10.8,13.4s-9.9-4.1-9.9-12.9Zm16.8,.3c0-5.8-1.7-9.8-6.4-9.8s-6.6,3.8-6.6,9.1c0,4.8,.9,10.5,6.4,10.5,4.6-.1,6.6-4.5,6.6-9.8Z"/><path class="flevonatuur-logo-fill-3" d="M421.7,350.2h3.3l.4,3.6c.9-2.5,3.3-4.3,6.1-4.3,1.6,0,3,.4,3.8,.9l-1,3.2c-.9-.5-2.1-.9-3.3-.9-3.1,0-5,2.8-5.2,6.1v15.5h-3.8v-20.8l-.3-3.3Z"/><path class="flevonatuur-logo-fill-3" d="M449.2,350.2h3.3l.4,3.5c1.8-2.7,4.7-4.2,7.8-4.2,5,0,7.7,2.8,7.7,8.3v16.4h-3.8v-15.3c0-3.6-.8-6.5-4.8-6.5-3.7,0-6.5,3.1-6.5,6v15.8h-3.8v-20.4l-.3-3.6Z"/><path class="flevonatuur-logo-fill-3" d="M474.2,363.2c0-8.6,4.1-13.8,12.1-13.8,1.5,0,4.9,.4,8,1.5v19l.4,4.2h-3.4l-.3-2.9h-.1c-1.3,1.9-3.5,3.6-7.2,3.6-7.2,.2-9.5-5.2-9.5-11.6Zm16.3,3.4v-13.3c-.9-.4-2.8-.9-4.8-.9-5.8,0-7.8,4.7-7.8,10.9,0,4.2,1.3,8.6,6.3,8.6,4.2,.1,6.3-2.6,6.3-5.3Z"/><path class="flevonatuur-logo-fill-3" d="M501.3,367.7v-27.1h3.8v9.6h6.9v3h-6.9v14.6c0,3.3,1.4,4.2,3.6,4.2,1.6,0,2.9-.7,3.6-1.2l1.2,2.6c-1.4,1-3.6,1.6-5.5,1.6-5.9-.1-6.7-3.3-6.7-7.3Z"/><path class="flevonatuur-logo-fill-3" d="M516.9,366.6v-16.5h3.8v15.4c0,3.6,.8,6.3,5,6.3,3.3,0,6.3-3,6.3-5.8v-16h3.8v20.5l.3,3.5h-3.3l-.4-3.3h0c-1.8,2.8-4.7,4-7.6,4-5.2,.2-7.9-2.5-7.9-8.1Z"/><path class="flevonatuur-logo-fill-3" d="M542.9,350.2h3.3l.4,3.6c.9-2.5,3.3-4.3,6.1-4.3,1.6,0,3,.4,3.8,.9l-1,3.2c-.9-.5-2.1-.9-3.3-.9-3.1,0-5,2.8-5.2,6.1v15.5h-3.8v-20.8l-.3-3.3Z"/><path class="flevonatuur-logo-fill-3" d="M559.6,343.3c0-1.4,1.1-2.5,2.5-2.5s2.5,1.1,2.5,2.5c0,1.5-1.1,2.6-2.6,2.6s-2.4-1.1-2.4-2.6Zm4.4,6.9v24.1h-3.8v-24.1h3.8Z"/><path class="flevonatuur-logo-fill-3" d="M569,372.6l1.3-2.8c1.4,.9,3.9,2.2,6.7,2.2,2.5,0,4.8-1.3,4.8-4.1s-2.2-3.7-5-4.4c-3.5-1-7.3-2.1-7.3-6.9s3.9-7.1,8.1-7.1c3.4,0,6.3,1.5,8,3.2l-2,2.3c-1.6-1.5-3.7-2.7-6.1-2.7-2.1,0-4.4,1-4.4,3.9,0,2.7,2.3,3.4,5.1,4.3,3.5,1.1,7.3,2.1,7.3,7s-3.5,7.4-8.4,7.4c-3.9,0-7.1-1.4-8.1-2.3Z"/><path class="flevonatuur-logo-fill-3" d="M590.8,367.7v-27.1h3.8v9.6h6.9v3h-6.9v14.6c0,3.3,1.4,4.2,3.6,4.2,1.6,0,2.9-.7,3.6-1.2l1.2,2.6c-1.4,1-3.6,1.6-5.5,1.6-6-.1-6.7-3.3-6.7-7.3Z"/><path class="flevonatuur-logo-fill-3" d="M604.8,362.6c0-7.2,4-13.1,11.2-13.1,4.5,0,7.1,2.4,7.1,6,0,7.9-10,8.5-14.5,8.4,.2,3.9,2.1,8,7.2,8,3.3,0,5.3-1.6,6.2-2.2l1.5,2.6c-1.2,1-4,2.7-7.8,2.7-7.7-.1-10.9-5.2-10.9-12.4Zm14.7-6.7c0-2.3-1.5-3.6-3.7-3.6-5.2,0-7.2,4.9-7.3,8.7,2.7,.2,11-.2,11-5.1Z"/><path class="flevonatuur-logo-fill-3" d="M628.4,350.2h3.3l.4,3.5c1.8-2.7,4.7-4.2,7.8-4.2,5,0,7.7,2.8,7.7,8.3v16.4h-3.8v-15.3c0-3.6-.8-6.5-4.8-6.5-3.7,0-6.5,3.1-6.5,6v15.8h-3.8v-20.4l-.3-3.6Z"/></g></svg>