<svg xmlns="http://www.w3.org/2000/svg" id="Layer_2" data-name="Layer 2" viewBox="0 0 901.4 453.25">
  <defs>
    <style>
      .cls-1{fill:#00172b}.cls-2{fill:#75988e}
    </style>
  </defs>
  <g id="a_Bewellness_deluxe_resort" data-name="a Bewellness deluxe resort">
    <path d="M46.93 298.82c4.49-2.2 7.93-7.16 10.51-15.09l2.67.76c-2.01 8.12-3.44 14.8-4.3 20.15-8.6-.29-17.86-.38-27.79-.38s-17.38.1-21.97.19l-.38-.96 22.35-33.62 16.52-26.17c-3.06-.19-7.74-.29-14.04-.29-6.88 0-11.75 1.05-14.61 3.15-2.77 2.01-4.97 6.02-6.59 11.84l-2.48-.48c1.05-6.11 1.72-12.22 2.2-18.24 6.78.29 14.9.48 24.26.48 6.97 0 14.9-.19 23.97-.48l.57 1.15-20.34 30.75-15.09 23.59c-.86 1.43-1.34 2.58-1.34 3.34 0 2 1.81 2.48 8.4 2.48 8.6 0 14.42-.76 17.48-2.2Z" class="cls-1"/>
    <path d="m104.23 305.51-13.08-33.62c-4.78-12.03-7.83-19.48-9.07-22.25-1.15-2.58-2.29-4.39-3.44-5.25-1.15-.96-3.06-1.53-5.83-1.81v-2.67c2.77.1 7.07.19 12.7.19s9.74-.1 12.51-.19v2.67c-4.3.29-5.83.96-5.83 3.34 0 .67.38 2.29 1.24 4.87 1.53 4.68 4.01 11.27 7.35 19.96l7.64 19.58h.19l13.08-34.19c-1.34-3.53-2.58-6.4-3.72-8.69-1.62-3.34-3.53-4.49-8.4-4.87v-2.67c2.77.1 6.88.19 12.22.19 5.83 0 10.22-.1 13.08-.19v2.67c-4.3.29-5.83.96-5.83 3.34 0 .86.38 2.48 1.15 4.87 1.15 3.53 3.63 10.12 7.45 19.96l7.64 19.58h.19l7.35-19.1c4.39-11.37 6.97-18.15 7.64-20.44.86-2.48 1.24-4.11 1.24-4.87 0-2.29-1.62-3.06-5.92-3.34v-2.67c2.2.1 5.63.19 10.12.19 4.11 0 7.35-.1 9.55-.19v2.67c-2.87.29-4.87.86-6.11 1.81-1.15.96-2.29 2.67-3.34 5.25-1.72 4.01-4.68 11.46-8.98 22.25l-13.08 33.62h-2.87l-16.9-43.17h-.19l-16.9 43.17h-2.87Z" class="cls-1"/>
    <path d="M174.91 301.78c2.77-.29 4.68-.86 5.92-1.72 1.24-.96 2.39-2.77 3.63-5.35 2.01-4.49 5.35-12.51 9.84-24.26l9.84-25.21c-1.62-1.53-3.72-2.39-6.49-2.58l.1-2.77c4.2.1 7.07.19 8.6.19 3.15 0 5.44 0 6.88-.1l12.61 32.19 8.98 22.54c1.05 2.58 2.1 4.3 3.25 5.25s3.15 1.53 6.02 1.81v2.67c-5.44-.1-9.55-.19-12.32-.19s-6.88.1-12.32.19v-2.67c4.2-.38 5.73-1.15 5.73-3.44 0-.96-.38-2.58-1.24-4.78l-5.16-13.47h-23.59l-5.06 13.47c-.96 2.58-1.43 4.39-1.43 5.25 0 2.01 1.72 2.67 5.92 2.96v2.67c-4.3-.1-7.64-.19-10.03-.19s-5.54.1-9.65.19v-2.67Zm31.9-52.15-10.31 26.84h20.92l-10.41-26.84h-.19Z" class="cls-1"/>
    <path d="M310.81 284.02c-2.2 8.69-3.63 15.57-4.39 20.53-12.61-.29-21.78-.38-27.6-.38-7.35 0-14.23.09-20.44.29v-2.67c5.35-.1 6.97-.86 7.45-4.78.29-1.72.38-9.84.38-24.26s-.1-22.63-.38-24.64c-.48-4.49-2.01-5.25-7.45-5.54v-2.67c2.77.1 6.88.19 12.42.19 2.96 0 7.16-.1 12.8-.19v2.67c-5.73.09-7.35.86-7.83 4.78-.29 1.72-.38 9.45-.38 23.11 0 14.61.19 22.92.48 24.83.76 4.2 3.82 5.83 9.93 5.83 6.88 0 11.84-1.62 15.19-5.06 3.44-3.44 5.25-6.97 7.16-12.8l2.67.76Z" class="cls-1"/>
    <path d="M339.84 296.91c-2.01-2.58-3.25-5.63-3.92-9.26-.57-3.72-.86-9.07-.86-16.24 0-13.47-.1-21.3-.38-23.3-.48-4.49-2.01-5.25-7.45-5.54v-2.67c2.77.1 6.88.19 12.51.19 2.77 0 6.88-.1 12.22-.19v2.67c-2.67.09-4.49.38-5.54.96-.95.48-1.53 1.81-1.81 3.82-.29 2-.38 9.07-.38 21.01 0 7.26.19 12.7.67 16.33.48 3.53 1.24 6.4 2.48 8.5 3.06 5.25 8.02 7.93 14.9 7.93s12.89-2.87 16.04-8.21c1.24-2.1 2.01-4.87 2.39-8.31.48-3.53.67-9.26.67-17.29 0-11.17-.1-17.48-.38-19.1-.67-4.49-2.29-5.35-7.93-5.63v-2.67c4.49.1 7.93.19 10.41.19 2.2 0 5.63-.1 10.22-.19v2.67c-5.73.09-7.26.76-7.93 4.87-.29 1.81-.38 9.07-.38 21.68 0 7.64-.19 13.18-.67 16.71-.38 3.53-1.43 6.59-3.06 9.36-3.92 6.78-11.08 10.12-21.49 10.12-9.26 0-16.04-2.77-20.34-8.4Z" class="cls-1"/>
    <path d="m438.79 305.51-13.08-33.62c-4.78-12.03-7.83-19.48-9.07-22.25-1.15-2.58-2.29-4.39-3.44-5.25-1.15-.96-3.06-1.53-5.83-1.81v-2.67c2.77.1 7.07.19 12.7.19s9.74-.1 12.51-.19v2.67c-4.3.29-5.83.96-5.83 3.34 0 .67.38 2.29 1.24 4.87 1.53 4.68 4.01 11.27 7.35 19.96l7.64 19.58h.19l13.08-34.19c-1.34-3.53-2.58-6.4-3.72-8.69-1.62-3.34-3.53-4.49-8.4-4.87v-2.67c2.77.1 6.88.19 12.23.19 5.83 0 10.22-.1 13.08-.19v2.67c-4.3.29-5.83.96-5.83 3.34 0 .86.38 2.48 1.15 4.87 1.15 3.53 3.63 10.12 7.45 19.96l7.64 19.58h.19l7.35-19.1c4.39-11.37 6.97-18.15 7.64-20.44.86-2.48 1.24-4.11 1.24-4.87 0-2.29-1.62-3.06-5.92-3.34v-2.67c2.2.1 5.63.19 10.12.19 4.11 0 7.35-.1 9.55-.19v2.67c-2.87.29-4.87.86-6.11 1.81-1.15.96-2.29 2.67-3.34 5.25-1.72 4.01-4.68 11.46-8.98 22.25l-13.08 33.62h-2.87l-16.9-43.17h-.19l-16.9 43.17h-2.87Z" class="cls-1"/>
    <path d="M566.19 304.46v-2.67c5.35-.1 6.88-.86 7.35-4.78.29-1.72.38-10.12.38-25.12h-33.04c0 14.23.1 22.35.38 24.35.48 4.49 2.01 5.25 7.35 5.54v2.67c-2.77-.1-6.88-.19-12.42-.19-2.77 0-6.88.1-12.32.19v-2.67c5.35-.1 6.97-.86 7.45-4.78.29-1.72.38-9.84.38-24.26s-.09-22.63-.38-24.64c-.48-4.49-2.01-5.25-7.45-5.54v-2.67c2.77.1 6.88.19 12.42.19 2.77 0 6.88-.1 12.32-.19v2.67c-5.35.09-6.88.86-7.35 4.78-.29 1.62-.38 8.5-.38 20.82h33.04c0-10.6-.1-17.29-.38-20.06-.48-4.49-2-5.25-7.35-5.54v-2.67c2.67.1 6.78.19 12.42.19 2.77 0 6.88-.1 12.22-.19v2.67c-5.35.09-6.88.86-7.35 4.78-.29 1.72-.38 9.84-.38 24.26s.1 22.63.38 24.64c.48 4.49 2.01 5.25 7.35 5.54v2.67c-2.67-.1-6.78-.19-12.42-.19-2.77 0-6.88.1-12.22.19Z" class="cls-1"/>
    <path d="M619.2 248.49c6.21-6.3 14.42-9.46 24.45-9.46s18.15 3.06 24.26 9.17c6.21 6.02 9.26 13.85 9.26 23.49s-3.15 17.96-9.46 24.26c-6.21 6.21-14.42 9.36-24.45 9.36s-18.15-3.06-24.26-9.07c-6.11-6.11-9.17-13.94-9.17-23.59s3.15-17.96 9.36-24.16Zm7.64 44.89c4.58 5.83 10.31 8.69 17.19 8.69s12.03-2.87 16.33-8.5c4.3-5.73 6.49-12.7 6.49-20.92 0-8.69-2.29-15.85-6.88-21.68-4.49-5.83-10.22-8.69-17.09-8.69s-12.03 2.87-16.33 8.6c-4.3 5.63-6.49 12.61-6.49 20.82 0 8.69 2.29 15.85 6.78 21.68Z" class="cls-1"/>
    <path d="M723.78 268.16c3.53 0 5.54-.48 6.69-2.1 1.24-1.81 1.62-2.96 2.1-6.4l2.39.29c-.38 3.44-.57 6.88-.57 10.41 0 3.82.19 7.07.57 9.65l-2.39.29c-.67-3.72-.86-4.97-2-6.78-1.15-1.81-3.15-2.2-6.69-2.2h-10.89c0 13.66.19 21.68.57 24.16.29 2.2 1.24 3.63 2.67 4.49 1.43.76 4.01 1.15 7.54 1.15s6.59-.38 9.07-1.15c2.58-.76 4.58-2.01 6.21-3.63 3.15-3.44 4.68-6.4 6.69-12.22l2.67.76c-2.01 7.93-3.44 14.52-4.3 19.77-10.7-.29-20.15-.48-28.27-.48-7.16 0-13.75.09-19.87.29v-2.67c5.35-.1 6.97-.86 7.45-4.78.29-1.72.38-9.84.38-24.26s-.09-22.63-.38-24.64c-.48-4.49-2.01-5.25-7.45-5.54v-2.67c6.69.19 13.47.29 20.34.29 9.07 0 17.86-.19 26.17-.57.29 4.3.96 9.46 2.01 15.28l-2.58.57c-1.05-3.15-2.1-5.54-3.25-7.16-2.2-3.15-6.69-5.16-15.38-5.16-3.82 0-7.16.29-10.12.86-.09 5.25-.19 13.37-.19 24.16h10.79Z" class="cls-1"/>
    <path d="M796.93 305.51h-2.96l-13.47-33.62c-3.25-8.21-6.4-15.66-9.36-22.25-1.15-2.58-2.29-4.39-3.44-5.25-1.15-.96-3.15-1.53-5.92-1.81v-2.67c2.48.1 6.69.19 12.51.19s10.31-.1 12.8-.19v2.67c-4.3.29-6.02 1.05-6.02 3.25 0 .96.48 2.67 1.34 5.16l8.4 21.77 7.35 18.15h.19l7.35-18.43c4.2-10.7 6.97-17.96 8.4-21.68.96-2.58 1.43-4.2 1.43-4.97 0-2.2-1.62-2.96-6.11-3.25v-2.67c2.39.1 5.73.19 10.12.19 4.11 0 7.26-.1 9.55-.19v2.67c-2.77.29-4.78.86-5.92 1.81-1.15.96-2.29 2.67-3.44 5.25-2.2 4.97-5.35 12.42-9.26 22.25l-13.56 33.62Z" class="cls-1"/>
    <path d="M870.85 268.16c3.53 0 5.54-.48 6.69-2.1 1.24-1.81 1.62-2.96 2.1-6.4l2.39.29c-.38 3.44-.57 6.88-.57 10.41 0 3.82.19 7.07.57 9.65l-2.39.29c-.67-3.72-.86-4.97-2-6.78-1.15-1.81-3.15-2.2-6.69-2.2h-10.89c0 13.66.19 21.68.57 24.16.29 2.2 1.24 3.63 2.67 4.49 1.43.76 4.01 1.15 7.54 1.15s6.59-.38 9.07-1.15c2.58-.76 4.58-2.01 6.21-3.63 3.15-3.44 4.68-6.4 6.69-12.22l2.67.76c-2.01 7.93-3.44 14.52-4.3 19.77-10.7-.29-20.15-.48-28.27-.48-7.16 0-13.75.09-19.87.29v-2.67c5.35-.1 6.97-.86 7.45-4.78.29-1.72.38-9.84.38-24.26s-.09-22.63-.38-24.64c-.48-4.49-2.01-5.25-7.45-5.54v-2.67c6.69.19 13.47.29 20.34.29 9.07 0 17.86-.19 26.17-.57.29 4.3.96 9.46 2.01 15.28l-2.58.57c-1.05-3.15-2.1-5.54-3.25-7.16-2.2-3.15-6.69-5.16-15.38-5.16-3.82 0-7.16.29-10.12.86-.09 5.25-.19 13.37-.19 24.16h10.79Z" class="cls-1"/>
    <path d="m450.58 346.26 5.12 15.75h16.57l-13.41 9.58 5.12 15.68-13.4-9.78-13.4 9.72 5.12-15.61-13.4-9.59h16.56l5.12-15.75z" class="cls-1"/>
    <path d="m363.84 346.26 5.12 15.75h16.57l-13.4 9.58 5.12 15.68-13.41-9.78-13.4 9.72 5.12-15.61-13.4-9.59h16.56l5.12-15.75z" class="cls-1"/>
    <path d="m537.32 346.26 5.12 15.75h16.57l-13.41 9.58 5.12 15.68-13.4-9.78-13.4 9.72 5.12-15.61-13.4-9.59h16.56l5.12-15.75z" class="cls-1"/>
    <path d="M469.16 8.07c-.15-.12-.3-.22-.45-.34-.29-.21-.55-.44-.86-.64-.09-.07-.2-.12-.29-.19-.41-.29-.84-.56-1.27-.83-16.76-11.05-43.38-6.99-52.66 12.08-14.05 34.38 33.19 52.5 56.4 31.14 13.05-10.98 12.52-31.14-.87-41.21Zm-17.15 47.14c-.92.14-1.85.29-2.78.36-.13.01-.27.03-.4.04-3.79.27-7.61-.06-11.27-.88-18.37-4.9-29.84-26.35-13.24-42C439.7-2.86 473.97 2.31 476.96 26.4c1.59 14.47-11.26 26.35-24.94 28.81Z" class="cls-2"/>
    <path d="M488.09 58.78c-18.61-23.07-55.3-24.77-79.92-10.95-15.85 8.51-24.97 28.78-12.55 44.08 6.87 8.8 16.88 13.99 27.58 16.68 15.73 4.41 33.52 3.53 47.91-3.74 18.17-8.54 30.7-25.28 16.98-46.06ZM471.86 99.9c-22.45 12.58-56.34 11.11-73.59-9.6-14.73-21.05 3.4-38.72 23.88-45.36 12.73-3.43 27.4-3.14 39.84.88 24.7 9.32 40.35 34.69 9.87 54.08Z" class="cls-2"/>
    <path d="M512.99 85.12c-23.02-29.46-79.26-29.04-101.92.56-12.74 19.49-3.8 35.86 11.79 45.98l.26.17c.96.63 1.94 1.23 2.96 1.78.65.36 1.36.65 2.03.99 1.13.59 2.26 1.16 3.43 1.68.78.35 1.58.66 2.38.98 6.1 2.48 12.55 4.25 18.85 4.96 14.28 1.88 29.19-.07 41.71-6.47 19.84-9.43 33.39-27.81 18.5-50.64Zm-17.49 45.55c-24.85 14.03-62.44 12.31-81.41-10.78-16.58-24.08 4.8-44.06 28.18-50.95 15.53-4.04 32.89-2.53 47.36 3.68 24.36 11.69 37.39 37.67 5.86 58.04Z" class="cls-2"/>
    <path d="M499.15 90.06C469.32 76 433 75.77 402.83 89.2c-40.35 18.25-40.4 56.31.29 74.07 30.11 12.94 65.95 12.63 95.75-.83 14.34-6.74 29.33-18.74 29.71-35.89-.16-17.2-15.12-29.52-29.43-36.5Zm-93.77 69.25c-37.76-16.2-37.61-49.49-.29-66.14 28.8-12.53 63.48-12.85 92.57-.83 14.1 6.09 28.98 17.55 29.32 34.22-.56 16.62-15.48 27.77-29.6 33.61-29.06 11.42-63.26 11.19-92.01-.86Z" class="cls-2"/>
    <path d="M20.29 443.81H5.88l-3.3 8.86H0l11.8-31.64h2.58l11.8 31.64H23.6l-3.3-8.86Zm-.9-2.44-6.28-16.86-6.33 16.86h12.61Z" class="cls-1"/>
    <path d="M82.99 443.9c0 5.79-4.52 8.77-10.35 8.77H61.88v-31.64h10.08c5.83 0 9.4 3.43 9.4 8.18 0 3.12-1.72 5.47-4.7 6.64v.14c3.75 1.04 6.33 3.62 6.33 7.91Zm-18.71-20.43v11.62h7.68c4.47 0 7.01-2.44 7.01-5.88s-2.53-5.74-7.01-5.74h-7.68ZM80.6 443.9c0-4.52-3.48-6.46-7.95-6.46h-8.36v12.84h8.36c4.47 0 7.95-1.9 7.95-6.37Z" class="cls-1"/>
    <path d="M114.9 450.27v2.4H97.45v-31.64h17.04v2.44H99.85v11.62h13.6v2.4h-13.6v12.79h15.05Z" class="cls-1"/>
    <path d="m169.54 421.03-10.53 31.64h-2.58l-7.86-27.25-7.91 27.25h-2.53l-10.58-31.64h2.58l9.17 27.57 7.95-27.57h2.58l7.95 27.57 9.22-27.57h2.53Z" class="cls-1"/>
    <path d="M201.01 450.27v2.4h-17.45v-31.64h17.04v2.44h-14.64v11.62h13.6v2.4h-13.6v12.79h15.05Z" class="cls-1"/>
    <path d="M233.05 450.27v2.4h-17.13v-31.64h2.44v29.24h14.69Z" class="cls-1"/>
    <path d="M265.1 450.27v2.4h-17.13v-31.64h2.44v29.24h14.69Z" class="cls-1"/>
    <path d="M304.06 421.03v31.64h-2.4l-19.25-27.52v27.52h-2.4v-31.64h2.4l19.25 27.52v-27.52h2.4Z" class="cls-1"/>
    <path d="M337.78 450.27v2.4h-17.45v-31.64h17.04v2.44h-14.64v11.62h13.6v2.4h-13.6v12.79h15.05Z" class="cls-1"/>
    <path d="M371.78 444.17c0 4.2-2.98 9.08-10.3 9.08-5.69 0-9.54-3.62-10.58-7.23l2.3-.72c.72 2.58 3.53 5.51 8.27 5.51s7.86-2.58 7.86-6.64c0-3.8-2.98-4.93-7.55-6.15-4.2-1.13-9.63-2.71-9.63-8.72 0-5.15 4.2-8.81 9.08-8.81 4.43 0 7.77 2.35 9.13 6.6l-2.35.59c-1.04-3.21-3.39-4.79-6.78-4.79-3.57 0-6.64 2.58-6.64 6.42s3.03 5.11 7.82 6.37c4.29 1.18 9.36 2.67 9.36 8.5Z" class="cls-1"/>
    <path d="M405.31 444.17c0 4.2-2.98 9.08-10.3 9.08-5.69 0-9.54-3.62-10.58-7.23l2.31-.72c.72 2.58 3.53 5.51 8.27 5.51s7.86-2.58 7.86-6.64c0-3.8-2.98-4.93-7.55-6.15-4.2-1.13-9.63-2.71-9.63-8.72 0-5.15 4.2-8.81 9.08-8.81 4.43 0 7.77 2.35 9.13 6.6l-2.35.59c-1.04-3.21-3.39-4.79-6.78-4.79-3.57 0-6.64 2.58-6.64 6.42s3.03 5.11 7.82 6.37c4.29 1.18 9.36 2.67 9.36 8.5Z" class="cls-1"/>
    <path d="m466.47 445.93 2.03 1.36c-2.89 3.62-7.32 5.97-12.38 5.97-9.04 0-16-7.37-16-16.41s6.96-16.36 16-16.36c5.06 0 9.49 2.3 12.38 5.97l-2.03 1.31c-2.44-2.98-6.1-4.88-10.35-4.88-7.73 0-13.56 6.28-13.56 13.97s5.83 13.96 13.56 13.96c4.25 0 7.91-1.9 10.35-4.88Z" class="cls-1"/>
    <path d="M499.88 450.27v2.4h-17.13v-31.64h2.44v29.24h14.69Z" class="cls-1"/>
    <path d="M532.83 443.81h-14.42l-3.3 8.86h-2.58l11.8-31.64h2.58l11.8 31.64h-2.58l-3.3-8.86Zm-.9-2.44-6.28-16.86-6.33 16.86h12.61Z" class="cls-1"/>
    <path d="M570.89 444.17c0 4.2-2.98 9.08-10.3 9.08-5.69 0-9.54-3.62-10.58-7.23l2.31-.72c.72 2.58 3.53 5.51 8.27 5.51s7.86-2.58 7.86-6.64c0-3.8-2.98-4.93-7.55-6.15-4.2-1.13-9.63-2.71-9.63-8.72 0-5.15 4.2-8.81 9.08-8.81 4.43 0 7.77 2.35 9.13 6.6l-2.35.59c-1.04-3.21-3.39-4.79-6.78-4.79-3.57 0-6.64 2.58-6.64 6.42s3.03 5.11 7.82 6.37c4.29 1.18 9.36 2.67 9.36 8.5Z" class="cls-1"/>
    <path d="M604.43 444.17c0 4.2-2.98 9.08-10.3 9.08-5.69 0-9.54-3.62-10.58-7.23l2.31-.72c.72 2.58 3.53 5.51 8.27 5.51s7.86-2.58 7.86-6.64c0-3.8-2.98-4.93-7.55-6.15-4.2-1.13-9.63-2.71-9.63-8.72 0-5.15 4.2-8.81 9.08-8.81 4.43 0 7.77 2.35 9.13 6.6l-2.35.59c-1.04-3.21-3.39-4.79-6.78-4.79-3.57 0-6.64 2.58-6.64 6.42s3.03 5.11 7.82 6.37c4.29 1.18 9.36 2.67 9.36 8.5Z" class="cls-1"/>
    <path d="M621.33 421.03v31.64h-2.44v-31.64h2.44Z" class="cls-1"/>
    <path d="m662.6 445.93 2.03 1.36c-2.89 3.62-7.32 5.97-12.38 5.97-9.04 0-16-7.37-16-16.41s6.96-16.36 16-16.36c5.06 0 9.49 2.3 12.38 5.97l-2.03 1.31c-2.44-2.98-6.1-4.88-10.35-4.88-7.73 0-13.56 6.28-13.56 13.97s5.83 13.96 13.56 13.96c4.25 0 7.91-1.9 10.35-4.88Z" class="cls-1"/>
    <path d="m719.51 452.67-8.27-13.33c-.59.04-1.22.09-1.85.09h-6.42v13.24h-2.39v-31.64h8.81c6.92 0 11.07 3.39 11.07 9.22 0 4.43-2.44 7.46-6.69 8.63l8.54 13.79h-2.8Zm-10.12-15.64c5.56 0 8.68-2.31 8.68-6.78s-3.12-6.78-8.68-6.78h-6.42v13.56h6.42Z" class="cls-1"/>
    <path d="M753.77 450.27v2.4h-17.45v-31.64h17.04v2.44h-14.64v11.62h13.6v2.4h-13.6v12.79h15.05Z" class="cls-1"/>
    <path d="M787.76 444.17c0 4.2-2.98 9.08-10.3 9.08-5.69 0-9.54-3.62-10.58-7.23l2.31-.72c.72 2.58 3.53 5.51 8.27 5.51s7.86-2.58 7.86-6.64c0-3.8-2.98-4.93-7.55-6.15-4.2-1.13-9.63-2.71-9.63-8.72 0-5.15 4.2-8.81 9.08-8.81 4.43 0 7.77 2.35 9.13 6.6l-2.35.59c-1.04-3.21-3.39-4.79-6.78-4.79-3.57 0-6.64 2.58-6.64 6.42s3.03 5.11 7.82 6.37c4.29 1.18 9.36 2.67 9.36 8.5Z" class="cls-1"/>
    <path d="M832.83 436.85c0 9.04-6.96 16.41-16 16.41s-15.95-7.37-15.95-16.41 6.92-16.36 15.95-16.36 16 7.32 16 16.36Zm-2.4 0c0-7.68-5.88-13.97-13.6-13.97s-13.56 6.28-13.56 13.97 5.88 13.96 13.56 13.96 13.6-6.24 13.6-13.96Z" class="cls-1"/>
    <path d="m866.68 452.67-8.27-13.33c-.59.04-1.22.09-1.85.09h-6.42v13.24h-2.4v-31.64h8.81c6.92 0 11.07 3.39 11.07 9.22 0 4.43-2.44 7.46-6.69 8.63l8.54 13.79h-2.8Zm-10.12-15.64c5.56 0 8.68-2.31 8.68-6.78s-3.12-6.78-8.68-6.78h-6.42v13.56h6.42Z" class="cls-1"/>
    <path d="M901.4 423.47h-8.68v29.2h-2.4v-29.2h-8.63v-2.44h19.71v2.44Z" class="cls-1"/>
    <path d="M602.61 365.32H901.4v2.89H602.61z" class="cls-1"/>
    <path d="M0 365.32h299.02v2.89H0z" class="cls-1"/>
  </g>
</svg>
