<svg xmlns="http://www.w3.org/2000/svg" id="Layer_2" data-name="Layer 2" viewBox="0 0 875.41 453.25">
  <defs>
    <style>
      .cls-1{fill:#00172b}.cls-2{fill:#a59d9a}
    </style>
  </defs>
  <g id="a_Bewellness_deluxe_resort" data-name="a Bewellness deluxe resort">
    <path d="M227.5 268.16c3.53 0 5.54-.48 6.69-2.1 1.24-1.81 1.62-2.96 2.1-6.4l2.39.29c-.38 3.44-.57 6.88-.57 10.41 0 3.82.19 7.07.57 9.65l-2.39.29c-.67-3.72-.86-4.97-2.01-6.78s-3.15-2.2-6.69-2.2H216.7c0 13.66.19 21.68.57 24.16.29 2.2 1.24 3.63 2.67 4.49 1.43.76 4.01 1.15 7.54 1.15s6.59-.38 9.07-1.15c2.58-.76 4.58-2.01 6.21-3.63 3.15-3.44 4.68-6.4 6.69-12.22l2.67.76c-2.01 7.93-3.44 14.52-4.3 19.77-10.7-.29-20.15-.48-28.27-.48-7.16 0-13.75.09-19.87.29v-2.67c5.35-.1 6.97-.86 7.45-4.78.29-1.72.38-9.84.38-24.26s-.1-22.63-.38-24.64c-.48-4.49-2.01-5.25-7.45-5.54v-2.67c6.69.19 13.47.29 20.34.29 9.07 0 17.86-.19 26.17-.57.29 4.3.96 9.46 2.01 15.28l-2.58.57c-1.05-3.15-2.1-5.54-3.25-7.16-2.2-3.15-6.69-5.16-15.38-5.16-3.82 0-7.16.29-10.12.86-.1 5.25-.19 13.37-.19 24.16h10.79Z" class="cls-1"/>
    <path d="M321.85 284.02c-2.2 8.69-3.63 15.57-4.39 20.53-12.61-.29-21.78-.38-27.6-.38-7.35 0-14.23.09-20.44.29v-2.67c5.35-.1 6.97-.86 7.45-4.78.29-1.72.38-9.84.38-24.26s-.1-22.63-.38-24.64c-.48-4.49-2.01-5.25-7.45-5.54v-2.67c2.77.1 6.88.19 12.42.19 2.96 0 7.16-.1 12.8-.19v2.67c-5.73.09-7.35.86-7.83 4.78-.29 1.72-.38 9.45-.38 23.11 0 14.61.19 22.92.48 24.83.76 4.2 3.82 5.83 9.93 5.83 6.88 0 11.84-1.62 15.19-5.06 3.44-3.44 5.25-6.97 7.16-12.8l2.67.76Z" class="cls-1"/>
    <path d="M329.11 239.9c5.44.1 9.55.19 12.32.19 3.15 0 7.45-.1 12.8-.19v2.67c-3.44.29-4.77.86-4.77 2.77 0 1.05.67 2.67 1.91 4.87l10.7 18.05c4.3-6.78 8.02-12.89 11.08-18.15 1.24-2.29 1.91-3.92 1.91-4.87 0-1.72-1.72-2.58-5.06-2.67v-2.67c4.58.1 8.02.19 10.22.19 2.39 0 5.54-.1 9.65-.19v2.67c-5.35.48-7.74 2.29-10.79 6.59-2.29 3.15-7.26 10.98-14.9 23.3 0 13.85.1 21.78.38 23.78.48 4.49 2.01 5.25 7.45 5.54v2.67c-2.77-.1-6.88-.19-12.51-.19-2.77 0-6.88.1-12.22.19v-2.67c5.35-.1 6.88-.86 7.35-4.78.29-1.62.38-9.26.38-23.11-6.59-10.98-11.65-19.2-15.38-24.45-3.15-4.58-5.16-6.49-10.51-6.88v-2.67Z" class="cls-1"/>
    <path d="m415.45 304.27-5.16-1.15-5.16-1.15c.1-8.59.1-14.99-.19-19.29l2.58-.19c1.62 12.32 8.69 19.39 19.29 19.39 7.74 0 13.66-3.63 13.66-10.79 0-3.06-1.53-5.92-3.06-7.74-.67-.86-1.91-1.91-3.63-2.96-1.62-1.15-2.96-2.01-3.92-2.48l-4.77-2.39-1.15-.57c-5.73-2.77-8.79-4.58-12.7-7.74-3.92-3.15-5.83-7.07-5.83-11.75s1.91-8.5 5.63-11.65c3.82-3.15 8.98-4.78 15.57-4.78 2.01 0 4.01.19 5.92.48 2.01.29 4.3.76 6.97 1.43 2.67.67 4.58 1.05 5.63 1.24 0 5.83.29 11.46.86 17l-2.58.29c-2-10.98-8.21-17.1-17.76-17.1-6.97 0-12.42 3.34-12.42 9.17 0 3.44 1.53 6.21 5.06 8.79l4.68 3.06 5.92 2.96c3.34 1.62 6.02 3.06 7.93 4.2 2.01 1.05 4.01 2.48 6.02 4.11 4.11 3.34 5.73 7.35 5.73 12.42 0 10.7-8.31 18.24-23.21 18.24-3.44 0-7.35-.57-9.93-1.05Z" class="cls-1"/>
    <path d="M466.93 304.46v-2.67c5.35-.1 6.97-.86 7.45-4.78.29-1.72.38-9.84.38-24.26s-.09-22.63-.38-24.64c-.48-4.49-2.01-5.25-7.45-5.54v-2.67c2.77.1 6.88.19 12.42.19 2.77 0 6.88-.1 12.32-.19v2.67c-5.35.09-6.88.86-7.35 4.78-.29 1.72-.38 9.84-.38 24.26s.1 22.63.38 24.64c.48 4.49 2.01 5.25 7.35 5.54v2.67c-2.77-.1-6.88-.19-12.42-.19-2.77 0-6.88.1-12.32.19Z" class="cls-1"/>
    <path d="M522.22 296.91c-2-2.58-3.25-5.63-3.92-9.26-.57-3.72-.86-9.07-.86-16.24 0-13.47-.09-21.3-.38-23.3-.48-4.49-2.01-5.25-7.45-5.54v-2.67c2.77.1 6.88.19 12.51.19 2.77 0 6.88-.1 12.22-.19v2.67c-2.67.09-4.49.38-5.54.96-.96.48-1.53 1.81-1.81 3.82-.29 2-.38 9.07-.38 21.01 0 7.26.19 12.7.67 16.33.48 3.53 1.24 6.4 2.48 8.5 3.06 5.25 8.02 7.93 14.9 7.93s12.89-2.87 16.04-8.21c1.24-2.1 2.01-4.87 2.39-8.31.48-3.53.67-9.26.67-17.29 0-11.17-.1-17.48-.38-19.1-.67-4.49-2.29-5.35-7.93-5.63v-2.67c4.49.1 7.93.19 10.41.19 2.2 0 5.63-.1 10.22-.19v2.67c-5.73.09-7.26.76-7.93 4.87-.29 1.81-.38 9.07-.38 21.68 0 7.64-.19 13.18-.67 16.71-.38 3.53-1.43 6.59-3.06 9.36-3.92 6.78-11.08 10.12-21.49 10.12-9.26 0-16.04-2.77-20.34-8.4Z" class="cls-1"/>
    <path d="M675.7 304.46c-5.73-.1-9.93-.19-12.7-.19-2.96 0-7.16.1-12.61.19v-2.67c5.63-.29 7.07-1.15 7.07-6.11 0-2.01-.57-9.84-1.62-23.4l-1.81-21.97h-.19l-22.63 54.82h-2.2l-22.16-53.67h-.19l-1.72 20.72c-1.05 12.61-1.53 20.44-1.53 23.4 0 5.06 1.43 5.92 7.16 6.21v2.67c-4.49-.1-7.83-.19-10.22-.19s-5.92.1-10.41.19v-2.67c5.63-.29 7.54-1.43 8.4-5.54.48-2.39 1.34-10.51 2.58-24.45 1.05-12.7 1.62-20.44 1.62-23.11 0-4.87-1.53-5.92-6.97-6.21l.1-2.58c1.72.1 4.39.19 7.93.19 3.82 0 6.59-.1 8.4-.19l20.72 50.33h.19l20.72-50.33c1.81.1 4.77.19 8.79.19 3.53 0 6.11-.1 7.83-.19l.1 2.58c-5.73.29-7.07 1.24-7.07 6.21 0 2.39.57 10.03 1.62 23.11 1.05 12.42 1.91 20.63 2.77 24.54.76 3.92 2.67 5.16 8.02 5.44v2.67Z" class="cls-1"/>
    <path d="M20.29 443.81H5.88l-3.3 8.86H0l11.8-31.64h2.58l11.8 31.64H23.6l-3.3-8.86Zm-.9-2.44-6.28-16.86-6.33 16.86h12.61Z" class="cls-1"/>
    <path d="M82.99 443.9c0 5.79-4.52 8.77-10.35 8.77H61.88v-31.64h10.08c5.83 0 9.4 3.43 9.4 8.18 0 3.12-1.72 5.47-4.7 6.64v.14c3.75 1.04 6.33 3.62 6.33 7.91Zm-18.71-20.43v11.62h7.68c4.47 0 7.01-2.44 7.01-5.88s-2.53-5.74-7.01-5.74h-7.68ZM80.6 443.9c0-4.52-3.48-6.46-7.95-6.46h-8.36v12.84h8.36c4.47 0 7.95-1.9 7.95-6.37Z" class="cls-1"/>
    <path d="M114.9 450.27v2.4H97.45v-31.64h17.04v2.44H99.85v11.62h13.6v2.4h-13.6v12.79h15.05Z" class="cls-1"/>
    <path d="m169.54 421.03-10.53 31.64h-2.58l-7.86-27.25-7.91 27.25h-2.53l-10.58-31.64h2.58l9.17 27.57 7.95-27.57h2.58l7.95 27.57 9.22-27.57h2.53Z" class="cls-1"/>
    <path d="M201.01 450.27v2.4h-17.45v-31.64h17.04v2.44h-14.64v11.62h13.6v2.4h-13.6v12.79h15.05Z" class="cls-1"/>
    <path d="M233.05 450.27v2.4h-17.13v-31.64h2.44v29.24h14.69Z" class="cls-1"/>
    <path d="M265.1 450.27v2.4h-17.13v-31.64h2.44v29.24h14.69Z" class="cls-1"/>
    <path d="M304.06 421.03v31.64h-2.4l-19.25-27.52v27.52h-2.4v-31.64h2.4l19.25 27.52v-27.52h2.4Z" class="cls-1"/>
    <path d="M337.78 450.27v2.4h-17.45v-31.64h17.04v2.44h-14.64v11.62h13.6v2.4h-13.6v12.79h15.05Z" class="cls-1"/>
    <path d="M371.78 444.17c0 4.2-2.98 9.08-10.3 9.08-5.69 0-9.54-3.62-10.58-7.23l2.31-.72c.72 2.58 3.53 5.51 8.27 5.51s7.86-2.58 7.86-6.64c0-3.8-2.98-4.93-7.55-6.15-4.2-1.13-9.63-2.71-9.63-8.72 0-5.15 4.2-8.81 9.08-8.81 4.43 0 7.77 2.35 9.13 6.6l-2.35.59c-1.04-3.21-3.39-4.79-6.78-4.79-3.57 0-6.64 2.58-6.64 6.42s3.03 5.11 7.82 6.37c4.29 1.18 9.36 2.67 9.36 8.5Z" class="cls-1"/>
    <path d="M405.31 444.17c0 4.2-2.98 9.08-10.3 9.08-5.69 0-9.54-3.62-10.58-7.23l2.3-.72c.72 2.58 3.53 5.51 8.27 5.51s7.86-2.58 7.86-6.64c0-3.8-2.98-4.93-7.55-6.15-4.2-1.13-9.63-2.71-9.63-8.72 0-5.15 4.2-8.81 9.08-8.81 4.43 0 7.77 2.35 9.13 6.6l-2.35.59c-1.04-3.21-3.39-4.79-6.78-4.79-3.57 0-6.64 2.58-6.64 6.42s3.03 5.11 7.82 6.37c4.29 1.18 9.36 2.67 9.36 8.5Z" class="cls-1"/>
    <path d="M466.52 436.85c0 9.04-6.55 15.82-15.59 15.82h-9.45v-31.64h9.45c9.04 0 15.59 6.78 15.59 15.82Zm-2.4 0c0-7.68-5.47-13.38-13.2-13.38h-7.05v26.8h7.05c7.73 0 13.2-5.69 13.2-13.42Z" class="cls-1"/>
    <path d="M498.88 450.27v2.4h-17.45v-31.64h17.04v2.44h-14.64v11.62h13.6v2.4h-13.6v12.79h15.05Z" class="cls-1"/>
    <path d="M530.93 450.27v2.4H513.8v-31.64h2.44v29.24h14.69Z" class="cls-1"/>
    <path d="M567.81 421.03v19.84c0 7.46-4.34 12.38-11.21 12.38s-11.21-4.93-11.21-12.38v-19.84h2.4v19.84c0 6.1 3.25 9.94 8.81 9.94s8.77-3.84 8.77-9.94v-19.84h2.44Z" class="cls-1"/>
    <path d="m603.66 452.67-9.49-14.24-9.45 14.24h-2.89l10.94-16.41-10.12-15.23h2.85l8.68 13.06 8.68-13.06h2.85l-10.08 15.23 10.89 16.41h-2.85Z" class="cls-1"/>
    <path d="M637.96 450.27v2.4h-17.45v-31.64h17.04v2.44h-14.64v11.62h13.6v2.4h-13.6v12.79h15.05Z" class="cls-1"/>
    <path d="m693.52 452.67-8.27-13.33c-.59.04-1.22.09-1.85.09h-6.42v13.24h-2.4v-31.64h8.81c6.92 0 11.07 3.39 11.07 9.22 0 4.43-2.44 7.46-6.69 8.63l8.54 13.79h-2.8Zm-10.12-15.64c5.56 0 8.68-2.31 8.68-6.78s-3.12-6.78-8.68-6.78h-6.42v13.56h6.42Z" class="cls-1"/>
    <path d="M727.78 450.27v2.4h-17.45v-31.64h17.04v2.44h-14.64v11.62h13.6v2.4h-13.6v12.79h15.05Z" class="cls-1"/>
    <path d="M761.77 444.17c0 4.2-2.98 9.08-10.3 9.08-5.69 0-9.54-3.62-10.58-7.23l2.31-.72c.72 2.58 3.53 5.51 8.27 5.51s7.86-2.58 7.86-6.64c0-3.8-2.98-4.93-7.55-6.15-4.2-1.13-9.63-2.71-9.63-8.72 0-5.15 4.2-8.81 9.08-8.81 4.43 0 7.77 2.35 9.13 6.6l-2.35.59c-1.04-3.21-3.39-4.79-6.78-4.79-3.57 0-6.64 2.58-6.64 6.42s3.03 5.11 7.82 6.37c4.29 1.18 9.36 2.67 9.36 8.5Z" class="cls-1"/>
    <path d="M806.83 436.85c0 9.04-6.96 16.41-16 16.41s-15.95-7.37-15.95-16.41 6.92-16.36 15.95-16.36 16 7.32 16 16.36Zm-2.4 0c0-7.68-5.88-13.97-13.6-13.97s-13.56 6.28-13.56 13.97 5.88 13.96 13.56 13.96 13.6-6.24 13.6-13.96Z" class="cls-1"/>
    <path d="m840.69 452.67-8.27-13.33c-.59.04-1.22.09-1.85.09h-6.42v13.24h-2.39v-31.64h8.81c6.92 0 11.07 3.39 11.07 9.22 0 4.43-2.44 7.46-6.69 8.63l8.54 13.79h-2.8Zm-10.12-15.64c5.56 0 8.68-2.31 8.68-6.78s-3.12-6.78-8.68-6.78h-6.42v13.56h6.42Z" class="cls-1"/>
    <path d="M875.41 423.47h-8.68v29.2h-2.4v-29.2h-8.63v-2.44h19.71v2.44Z" class="cls-1"/>
    <path d="m394.33 346.26 5.12 15.75h16.57l-13.4 9.58 5.12 15.68-13.41-9.78-13.4 9.72 5.12-15.61-13.4-9.59h16.57l5.11-15.75z" class="cls-1"/>
    <path d="m307.6 346.26 5.11 15.75h16.57l-13.4 9.58 5.12 15.68-13.4-9.78-13.41 9.72 5.12-15.61-13.4-9.59h16.57l5.12-15.75z" class="cls-1"/>
    <path d="m481.07 346.26 5.12 15.75h16.57l-13.4 9.58 5.11 15.68-13.4-9.78-13.4 9.72 5.12-15.61-13.4-9.59h16.56l5.12-15.75z" class="cls-1"/>
    <path d="m567.81 346.26 5.12 15.75h16.57l-13.41 9.58 5.12 15.68-13.4-9.78-13.4 9.72 5.12-15.61-13.4-9.59h16.56l5.12-15.75z" class="cls-1"/>
    <path d="M456.28 8.07c-.15-.12-.3-.22-.45-.34-.29-.21-.55-.44-.86-.64-.09-.07-.2-.12-.29-.19-.41-.29-.84-.56-1.27-.83-16.76-11.05-43.38-6.99-52.66 12.08-14.05 34.38 33.19 52.5 56.4 31.14 13.05-10.98 12.52-31.14-.87-41.21Zm-17.15 47.14c-.92.14-1.85.29-2.78.36-.13.01-.27.03-.4.04-3.79.27-7.61-.06-11.27-.88-18.37-4.9-29.84-26.35-13.24-42 15.38-15.59 49.65-10.42 52.64 13.67 1.59 14.47-11.26 26.35-24.94 28.81Z" class="cls-2"/>
    <path d="M475.21 58.78c-18.61-23.07-55.3-24.77-79.92-10.95-15.85 8.51-24.97 28.78-12.55 44.08 6.87 8.8 16.88 13.99 27.58 16.68 15.73 4.41 33.52 3.53 47.91-3.74 18.17-8.54 30.7-25.28 16.98-46.06ZM458.98 99.9c-22.45 12.58-56.34 11.11-73.59-9.6-14.73-21.05 3.4-38.72 23.88-45.36 12.73-3.43 27.4-3.14 39.84.88 24.7 9.32 40.35 34.69 9.87 54.08Z" class="cls-2"/>
    <path d="M500.11 85.12c-23.02-29.46-79.26-29.04-101.92.56-12.74 19.49-3.8 35.86 11.79 45.98l.26.17c.96.63 1.94 1.23 2.96 1.78.65.36 1.36.65 2.03.99 1.13.59 2.26 1.16 3.43 1.68.78.35 1.58.66 2.38.98 6.1 2.48 12.55 4.25 18.85 4.96 14.28 1.88 29.19-.07 41.71-6.47 19.84-9.43 33.39-27.81 18.5-50.64Zm-17.49 45.55c-24.85 14.03-62.44 12.31-81.41-10.78-16.58-24.08 4.8-44.06 28.18-50.95 15.53-4.04 32.89-2.53 47.36 3.68 24.36 11.69 37.39 37.67 5.86 58.04Z" class="cls-2"/>
    <path d="M486.27 90.06c-29.83-14.06-66.15-14.29-96.32-.86-40.35 18.25-40.4 56.31.29 74.07 30.11 12.94 65.95 12.63 95.75-.83 14.34-6.74 29.33-18.74 29.71-35.89-.16-17.2-15.12-29.52-29.43-36.5Zm-93.77 69.25c-37.76-16.2-37.61-49.49-.29-66.14 28.8-12.53 63.48-12.85 92.57-.83 14.1 6.09 28.98 17.55 29.32 34.22-.56 16.62-15.48 27.77-29.6 33.61-29.06 11.42-63.26 11.19-92.01-.86Z" class="cls-2"/>
    <path d="M632.88 365.32H875.4v2.89H632.88z" class="cls-1"/>
    <path d="M0 365.32h242.52v2.89H0z" class="cls-1"/>
  </g>
</svg>
