<?xml version="1.0" encoding="UTF-8"?> <svg xmlns="http://www.w3.org/2000/svg" id="Laag_1" data-name="Laag 1" width="118.82mm" height="53.94mm" viewBox="0 0 336.8 152.9"><g id="ef756954-305b-4676-b583-e96468563766"><g id="acac1895-6954-4e3c-a163-644db91cc7fc"><path d="M14.6,70.9c.9-.1,1.8-.2,2.8-.2,1.4-.1,2.7.3,3.9,1.1,1,.8,1.6,2.1,1.5,3.4.1,1.4-.5,2.7-1.5,3.7-1.3.8-2.8,1.2-4.3,1.1-.8,0-1.6,0-2.3-.1l-.1-9ZM16.4,78.7h1c2.2,0,3.6-1.2,3.6-3.5,0-2-1.2-3.2-3.4-3.2-.4,0-.8,0-1.2.1v6.6Z" fill="#fff"></path><path d="M27,77.3l-.8,2.6h-1.8l3-9.2h2.2l3.1,9.2h-1.8l-.9-2.6h-3ZM29.7,76.1l-.7-2.3c-.2-.6-.3-1.2-.5-1.7h0c-.1.5-.3,1.2-.5,1.7l-.7,2.2,2.4.1Z" fill="#fff"></path><path d="M36,79.9v-3.8l-3-5.3h2l1.1,2.3c.3.7.6,1.2.8,1.8h0c.2-.6.5-1.2.8-1.8l1.1-2.3h2l-3.2,5.3v3.9l-1.6-.1h0Z" fill="#fff"></path><path d="M42.7,78.1c.7.4,1.5.6,2.3.6,1.1,0,1.7-.5,1.7-1.2s-.5-1.1-1.7-1.5c-1.6-.5-2.6-1.3-2.6-2.7,0-1.5,1.3-2.6,3.4-2.6.8,0,1.6.1,2.3.5l-.4,1.3c-.6-.3-1.2-.4-1.9-.4-1.1,0-1.6.6-1.6,1.1,0,.7.5,1,1.8,1.5,1.6.6,2.4,1.4,2.4,2.7,0,1.5-1.2,2.8-3.6,2.8-.9,0-1.8-.2-2.6-.6l.5-1.5Z" fill="#fff"></path><path d="M51.1,70.9c.9-.1,1.8-.2,2.6-.2,1-.1,2,.2,2.8.8.6.5.9,1.2.9,2s-.3,1.5-.8,2.1c-.8.7-1.9,1.1-3,1-.3,0-.6,0-.8-.1v3.5h-1.7v-9.1ZM52.8,75.1c.3.1.6.1.8.1,1.3,0,2.1-.6,2.1-1.7s-.7-1.5-1.9-1.5c-.3,0-.7,0-1,.1v3Z" fill="#fff"></path><path d="M60.9,77.3l-.8,2.6h-1.8l3-9.2h2.2l3.1,9.2h-1.8l-.8-2.6h-3.1ZM63.6,76.1l-.8-2.2c-.2-.6-.3-1.2-.5-1.7h0c-.1.5-.3,1.2-.5,1.7l-.7,2.2h2.5Z" fill="#fff"></path><path d="M16.2,95.5l-2.3-9.2h1.8l.9,4.2c.2,1.1.5,2.3.6,3.2h0c.1-1,.4-2.1.7-3.2l1-4.1h1.8l.9,4.2c.2,1.1.4,2.1.6,3.1h0c.2-1,.4-2,.6-3.2l1-4.1h1.8l-2.5,9.2h-1.8l-1-4.3c-.2-1.1-.4-1.9-.5-2.9h0c-.1,1-.4,2-.6,2.9l-1.1,4.3-1.9-.1Z" fill="#fff"></path><polygon points="33.2 91.4 29.6 91.4 29.6 94.1 33.6 94.1 33.6 95.5 27.9 95.5 27.9 86.3 33.4 86.3 33.4 87.7 29.6 87.7 29.6 90 33.2 90 33.2 91.4" fill="#fff"></polygon><polygon points="36.2 86.3 38 86.3 38 94.1 41.8 94.1 41.8 95.5 36.2 95.5 36.2 86.3" fill="#fff"></polygon><polygon points="44.2 86.3 46 86.3 46 94.1 49.8 94.1 49.8 95.5 44.2 95.5 44.2 86.3" fill="#fff"></polygon><path d="M52.2,95.5v-9.2h2l2.4,3.9c.6,1,1.1,2,1.6,3.1h0c-.1-1.3-.2-2.5-.2-3.8v-3.2h1.6v9.2h-1.8l-2.5-4c-.6-1-1.2-2.1-1.7-3.2h0c.1,1.2.1,2.4.1,3.9v3.3h-1.5Z" fill="#fff"></path><polygon points="68.1 91.4 64.5 91.4 64.5 94.1 68.5 94.1 68.5 95.5 62.8 95.5 62.8 86.3 68.3 86.3 68.3 87.7 64.5 87.7 64.5 90 68.1 90 68.1 91.4" fill="#fff"></polygon><path d="M71.1,93.6c.7.4,1.5.6,2.3.6,1.1,0,1.7-.5,1.7-1.2s-.5-1.1-1.7-1.5c-1.6-.6-2.6-1.3-2.6-2.7,0-1.5,1.3-2.6,3.4-2.6.8,0,1.6.1,2.3.5l-.5,1.3c-.6-.3-1.2-.4-1.9-.4-1.1,0-1.6.6-1.6,1.1,0,.7.6,1,1.8,1.5,1.6.6,2.4,1.4,2.4,2.7,0,1.5-1.2,2.8-3.6,2.8-.9,0-1.8-.2-2.6-.7l.6-1.4Z" fill="#fff"></path><path d="M79.4,93.6c.7.4,1.5.6,2.3.6,1.1,0,1.7-.5,1.7-1.2s-.5-1.1-1.7-1.5c-1.6-.6-2.6-1.3-2.6-2.7,0-1.5,1.3-2.6,3.3-2.6.8,0,1.6.1,2.3.5l-.3,1.3c-.6-.3-1.2-.4-1.9-.4-1.1,0-1.6.6-1.6,1.1,0,.7.6,1,1.8,1.5,1.7.6,2.4,1.4,2.4,2.7,0,1.5-1.2,2.8-3.6,2.8-.9,0-1.8-.2-2.6-.7l.5-1.4Z" fill="#fff"></path><path d="M289.8,67.2c-13,0-19,10.6-19,20.1,0,11.8,7.3,19.2,20.1,19.2,4.7.1,9.3-.7,13.6-2.4l-1.6-7.9c-3.4,1.1-6.9,1.7-10.4,1.6-5.5,0-10.2-2.3-10.6-7.2h24.3c.3-1.5.4-3.1.4-4.6,0-9.4-4.6-18.8-16.8-18.8M281.9,82.6c.3-3.1,2.3-7.6,7.3-7.6,5.3,0,6.5,4.8,6.5,7.6h-13.8Z" fill="#fff"></path><path d="M334.3,67.2c-3.7,0-8.2,2.3-10.2,7.8h-.3l-.5-7h-10c.2,3.2.3,6.9.3,12.4v25.3h11.7v-19c0-.9.1-1.8.2-2.6.8-3.7,3.7-5.9,8-5.9,1.1,0,2.1.1,3.2.3v-11c-.8-.2-1.6-.3-2.4-.3" fill="#fff"></path><path d="M141.1,40.4c0-.9.1-1.8.2-2.6.8-3.7,3.7-5.9,8-5.9,1.1,0,2.1.1,3.2.3v-11c-.8-.2-1.6-.2-2.5-.2-3.7,0-8.2,2.3-10.2,7.9h-.3l-.5-7h-10c.2,3.2.3,6.9.3,12.4v71.3h29.8v-11h-18.1l.1-54.2Z" fill="#fff"></path><path d="M202.9,20.9c-2.5,0-5,.6-7.2,1.9-1.9,1.2-3.6,2.8-4.9,4.6h-.2c-1.6-3.9-5.4-6.5-10.3-6.5-4.6-.2-8.9,2.1-11.4,6h-.2l-.5-5.2h-9.9c.1,3.4.3,7.3.3,12v25.7h11.4v-21.9c0-1,.1-2,.5-3,.8-2.4,3-4.1,5.5-4.2,3.8,0,5.5,3.2,5.5,7.9v21.1h11.4v-22c0-1,.1-2,.4-2.9.7-2.4,3-4,5.5-4.1,3.8,0,5.5,3.1,5.5,8.6v20.4h11.4v-22.1c0-11.2-5.5-16.3-12.8-16.3" fill="#fff"></path><path d="M252.1,67.3c-2.5,0-4.9.6-7.1,1.8-2,1.2-3.7,2.8-5,4.6h-.1c-1.6-3.9-5.4-6.5-10.3-6.5-4.6-.1-8.9,2.1-11.4,6h-.2l-.5-5.2h-9.9c.1,3.4.3,7.3.3,12v25.7h11.4v-21.8c0-1,.1-2,.5-3,.8-2.4,3-4,5.5-4.2,3.8,0,5.5,3.2,5.5,7.9v21.1h11.2v-22c0-1,.1-2,.4-2.9.8-2.4,3-4,5.5-4.1,3.8,0,5.5,3.2,5.5,8.6v20.4h11.4v-22.1c0-11.2-5.5-16.3-12.7-16.3" fill="#fff"></path><path d="M241.8,60.2c4.7.1,9.3-.7,13.6-2.4l-1.5-7.9c-3.4,1.1-6.9,1.7-10.4,1.6-5.5,0-10.2-2.3-10.6-7.2h24.3c.3-1.5.4-3.1.4-4.6,0-9.3-4.6-18.8-16.8-18.8-13,0-19,10.5-19,20.1,0,11.8,7.3,19.2,20,19.2M240.2,28.7c5.3,0,6.5,4.8,6.5,7.6h-13.9c.3-3.1,2.3-7.6,7.4-7.6" fill="#fff"></path><path d="M288.6,59.4h11.7v-22.3c0-11.1-5.8-16.2-13.5-16.2-4.7-.1-9.1,2.2-11.6,6.1h-.2l-.5-5.2h-10.2c.2,3.4.3,7.3.3,12v25.6h11.7v-21.7c0-1,.1-2,.4-2.9.9-2.6,3.3-4.3,6-4.4,4.2,0,5.9,3.3,5.9,8.2v20.8Z" fill="#fff"></path><path d="M.4,4.4h-.4v9.9h14v45.1h11.7V14.3h14.2V4.9c-6.1,1.1-12.2,1.7-18.4,1.7-7.1,0-14.2-.7-21.1-2.2" fill="#fff"></path><path d="M67.4,20.9c-2.1,0-4.2.5-6.1,1.5-1.8.9-3.4,2.3-4.6,3.9h-.2V0c-3.8,1.6-7.7,2.9-11.7,3.9v55.5h11.7v-22.3c0-.9.1-1.7.4-2.5.9-2.5,3.2-4.2,5.8-4.1,4.4,0,6.1,3.4,6.1,8.3v20.7h11.7v-22c.1-11.5-5.6-16.7-13.1-16.6" fill="#fff"></path><path d="M105.6,20.9c-13,0-19,10.6-19,20.1,0,11.8,7.3,19.2,20.1,19.2,4.7.1,9.3-.7,13.6-2.4l-1.5-7.9c-3.4,1.1-6.9,1.7-10.4,1.6-5.5,0-10.2-2.3-10.6-7.2h24.2c.3-1.5.4-3.1.4-4.6,0-9.3-4.6-18.8-16.8-18.8M97.6,36.3c.3-3.1,2.3-7.6,7.3-7.6,5.3,0,6.6,4.8,6.6,7.6h-13.9Z" fill="#fff"></path><path d="M197.4,83.5c0-8.9-3.9-16.3-16.5-16.3-5.1-.1-10.1,1.1-14.6,3.4l2.2,7.5c3.2-1.8,6.8-2.7,10.4-2.8,5.8,0,6.9,2.8,6.9,4.8v.5c-13.3,0-22.1,4.6-22.1,14.4,0,6,4.6,11.6,12.2,11.6,4.5,0,8.3-1.6,10.8-4.6h.2l.7,3.8h10.6c-.5-3-.7-6-.6-9.1l-.2-13.2ZM186.1,92.1c0,.7-.1,1.3-.2,2-.9,2.6-3.4,4.3-6.1,4.3s-4.6-1.5-4.6-4.5c0-4.5,4.8-5.9,10.9-5.9v4.1Z" fill="#fff"></path><rect x="200" y="84.6" width="5.6" height="5.6" fill="#fff"></rect><rect x="14" y="100.8" width="110.1" height="4.7" fill="#fff"></rect></g></g><g><path d="M15.94,137.3c-.61,0-1.16-.13-1.64-.4-.48-.27-.86-.64-1.13-1.12-.27-.48-.41-1.02-.41-1.63,0-.46.09-.86.26-1.21.17-.35.41-.62.71-.82.31-.2.65-.3,1.05-.3.36,0,.68.1.97.31-.32.28-.57.64-.76,1.08-.19.44-.29.9-.29,1.38,0,.55.11.95.33,1.22.22.27.56.4,1.02.4.42,0,.79-.13,1.12-.38.32-.25.6-.68.84-1.29.23-.6.43-1.42.58-2.46.15-1.04.26-2.33.33-3.88.07-1.55.1-3.41.1-5.57l2.21-.1-.71,7.91c-.2,2.23-.7,3.92-1.48,5.09-.78,1.17-1.82,1.75-3.12,1.75ZM17.96,123.84c-.43,0-.72-.11-.87-.34-.15-.23-.22-.48-.22-.76,0-.18.01-.35.04-.5.03-.16.05-.3.08-.41.5.11.97.19,1.42.24.45.04.89.07,1.33.07.67,0,1.35-.05,2.02-.15.67-.1,1.34-.25,2-.46-.05.44-.19.81-.43,1.11-.24.29-.5.51-.78.65-.29.14-.54.23-.75.27-.31.05-.7.1-1.17.14-.48.04-.96.08-1.44.11-.48.03-.89.05-1.22.05Z" fill="#fff"></path><path d="M28.57,136.9c-.46,0-.92-.1-1.37-.3-.46-.2-.87-.5-1.25-.91-.38-.41-.68-.92-.91-1.55-.23-.63-.34-1.38-.34-2.24,0-1.06.16-2.02.47-2.9.31-.88.76-1.63,1.33-2.26.58-.63,1.26-1.1,2.03-1.4.14,0,.24.04.3.11.06.08.09.17.09.27-.39.27-.79.64-1.19,1.11s-.71,1.12-.94,1.95l.13.04c.37-.8.8-1.43,1.29-1.89.49-.46.99-.78,1.52-.97.52-.19,1.01-.29,1.47-.29.56,0,1.05.17,1.47.5.42.33.75.8.98,1.42.23.62.35,1.36.35,2.22,0,.81-.1,1.64-.31,2.47-.2.83-.52,1.6-.95,2.3-.43.7-.99,1.26-1.68,1.69-.69.43-1.51.64-2.48.64ZM28.76,135.72c.53,0,1.01-.17,1.42-.5s.76-.78,1.05-1.33c.29-.55.51-1.16.66-1.82s.23-1.31.23-1.95c0-1.13-.16-1.96-.49-2.47s-.74-.77-1.25-.77-.96.17-1.4.5c-.44.33-.83.76-1.18,1.3-.35.53-.62,1.12-.82,1.75-.2.64-.3,1.25-.3,1.85s.07,1.16.21,1.69c.14.53.36.95.67,1.28s.71.49,1.2.49Z" fill="#fff"></path><path d="M44.89,137.02c-.55-.22-.97-.49-1.27-.83s-.51-.72-.62-1.14-.17-.89-.17-1.4c0-.2,0-.41.03-.62s.04-.43.07-.66l-.15-.04c-.29.84-.65,1.58-1.09,2.23s-.88,1.15-1.34,1.52c-.46.36-.9.54-1.31.54-.57,0-1.01-.14-1.33-.43s-.53-.67-.66-1.14-.19-1.01-.19-1.59c0-.67.05-1.33.16-1.97.11-.64.21-1.27.31-1.88.1-.61.15-1.21.15-1.79,0-.36-.02-.71-.06-1.05-.04-.34-.11-.69-.21-1.05.48,0,.91.05,1.27.15s.65.3.86.58c.21.29.31.72.31,1.31,0,.46-.07,1.01-.2,1.67-.13.66-.27,1.33-.4,2.03s-.2,1.35-.2,1.96c0,.47.07.82.21,1.06.14.24.36.35.67.35s.6-.15.92-.44c.32-.29.62-.69.92-1.2s.56-1.09.79-1.75c.23-.65.42-1.35.55-2.08.13-.73.2-1.46.2-2.2,0-.25,0-.51-.03-.78-.02-.27-.05-.52-.09-.76.1-.01.21-.02.31-.03.11,0,.21,0,.3,0,.28,0,.54.04.79.13s.45.26.61.5c.16.25.24.6.24,1.06,0,.24-.04.6-.1,1.07s-.16,1.01-.26,1.61c-.1.6-.19,1.23-.26,1.87-.07.64-.1,1.26-.1,1.86s.03,1.16.08,1.72.15,1.1.29,1.62Z" fill="#fff"></path><path d="M50.15,136.88c-.13,0-.23-.02-.31-.07-.08-.04-.14-.12-.16-.22-.19-.86-.36-1.8-.51-2.81-.15-1.01-.29-2.02-.43-3.02-.14-1-.31-1.93-.52-2.78-.2-.84-.46-1.53-.76-2.05.22-.14.44-.26.66-.35.22-.1.42-.14.58-.14.46,0,.81.17,1.05.5.24.33.42.8.53,1.4.11.6.2,1.33.26,2.17s.12,1.76.2,2.77.2,2.09.36,3.23l-.32-.42c.27-.64.56-1.32.87-2.05.31-.73.62-1.48.92-2.24.3-.76.57-1.5.81-2.22.24-.72.43-1.38.57-1.97l.84,1.77c-.23.6-.5,1.25-.82,1.95-.32.71-.65,1.43-1,2.17-.35.74-.68,1.46-1,2.16-.32.71-.59,1.36-.82,1.96-.05.04-.18.09-.38.16-.2.07-.41.1-.61.1ZM56.03,136.88c-.13,0-.23-.02-.31-.07-.08-.04-.14-.12-.16-.22-.15-.86-.29-1.8-.4-2.81s-.25-2.02-.39-3.02-.33-1.93-.55-2.78c-.22-.84-.51-1.53-.87-2.05.22-.14.44-.26.66-.35.22-.1.42-.14.58-.14.43,0,.77.17,1.01.5.24.33.42.8.54,1.4.12.6.21,1.33.28,2.17.06.84.13,1.77.21,2.78.08,1.02.2,2.1.36,3.24l-.34-.4c.34-.79.7-1.63,1.08-2.52s.73-1.78,1.08-2.68.62-1.75.84-2.56.33-1.54.34-2.17c.41.19.71.44.9.73.19.3.29.67.29,1.12,0,.39-.09.86-.28,1.41-.18.55-.43,1.14-.72,1.78s-.63,1.32-.98,2.02c-.36.71-.71,1.43-1.05,2.16s-.65,1.47-.92,2.19c-.05.04-.21.09-.48.16-.27.07-.5.1-.71.1Z" fill="#fff"></path><path d="M71.93,129.44c.32-.76.69-1.43,1.12-2.01.43-.58.86-1.03,1.32-1.34.45-.32.87-.48,1.25-.48.56,0,.99.15,1.3.44.31.29.52.69.65,1.18s.19,1.06.19,1.68c.48-1.04,1.04-1.85,1.66-2.43.62-.58,1.19-.87,1.7-.87.55,0,.97.11,1.28.33.31.22.52.54.65.94.13.41.19.88.19,1.43s-.04,1.07-.11,1.61c-.08.54-.16,1.08-.26,1.61-.1.53-.18,1.07-.26,1.61-.08.54-.11,1.09-.11,1.65,0,.6.09,1.04.27,1.33.18.29.45.54.82.75-.13.01-.25.02-.36.02h-.34c-.78,0-1.37-.16-1.77-.48-.41-.32-.61-.9-.61-1.75,0-.51.06-1.11.19-1.79s.25-1.4.38-2.14c.13-.74.19-1.43.19-2.07,0-.41-.07-.72-.22-.93-.15-.22-.37-.32-.66-.32-.32,0-.67.17-1.05.51-.38.34-.75.84-1.1,1.48-.35.64-.64,1.4-.86,2.28-.22.88-.33,1.85-.33,2.92,0,.32,0,.65.03.98s.05.68.09,1.04c-.13.01-.24.02-.33.03-.1,0-.18,0-.26,0-.53,0-.94-.12-1.23-.37s-.43-.66-.43-1.25c0-.33.04-.75.12-1.27.08-.52.18-1.07.29-1.66.11-.59.2-1.19.29-1.78.08-.6.12-1.15.12-1.66,0-.84-.29-1.26-.88-1.26-.32,0-.67.17-1.05.51-.38.34-.75.83-1.1,1.47s-.64,1.39-.86,2.27c-.22.88-.33,1.86-.33,2.94,0,.32,0,.65.03.98s.05.68.09,1.04c-.13.01-.24.02-.33.03-.1,0-.18,0-.26,0-.53,0-.94-.12-1.23-.37-.29-.25-.43-.66-.43-1.25,0-.22.04-.58.11-1.08s.17-1.09.28-1.76c.11-.67.2-1.37.28-2.09.08-.72.11-1.4.11-2.03,0-.5-.03-.98-.08-1.47s-.13-.95-.25-1.39c.55.2.97.47,1.26.8.29.33.5.7.61,1.12.11.41.17.87.17,1.36,0,.15,0,.3,0,.46,0,.15-.02.31-.05.48l.13.02Z" fill="#fff"></path><path d="M89.92,136.9c-.46,0-.92-.1-1.37-.3-.46-.2-.87-.5-1.25-.91-.38-.41-.68-.92-.91-1.55-.23-.63-.34-1.38-.34-2.24,0-1.06.16-2.02.47-2.9.31-.88.76-1.63,1.33-2.26.58-.63,1.26-1.1,2.03-1.4.14,0,.24.04.3.11.06.08.09.17.09.27-.39.27-.79.64-1.19,1.11s-.71,1.12-.94,1.95l.13.04c.37-.8.8-1.43,1.29-1.89.49-.46.99-.78,1.52-.97.52-.19,1.01-.29,1.47-.29.56,0,1.05.17,1.47.5.42.33.75.8.98,1.42.23.62.35,1.36.35,2.22,0,.81-.1,1.64-.31,2.47-.2.83-.52,1.6-.95,2.3-.43.7-.99,1.26-1.68,1.69-.69.43-1.51.64-2.48.64ZM90.11,135.72c.53,0,1.01-.17,1.42-.5s.76-.78,1.05-1.33c.29-.55.51-1.16.66-1.82s.23-1.31.23-1.95c0-1.13-.16-1.96-.49-2.47s-.74-.77-1.25-.77-.96.17-1.4.5c-.44.33-.83.76-1.18,1.3-.35.53-.62,1.12-.82,1.75-.2.64-.3,1.25-.3,1.85s.07,1.16.21,1.69c.14.53.36.95.67,1.28s.71.49,1.2.49Z" fill="#fff"></path><path d="M100.77,129.44c.32-.76.69-1.43,1.12-2.01.43-.58.86-1.03,1.32-1.34.45-.32.87-.48,1.25-.48.56,0,.99.15,1.3.44.31.29.52.69.65,1.18s.19,1.06.19,1.68c.48-1.04,1.04-1.85,1.66-2.43.62-.58,1.19-.87,1.7-.87.55,0,.97.11,1.28.33.31.22.52.54.65.94.13.41.19.88.19,1.43s-.04,1.07-.11,1.61c-.08.54-.16,1.08-.26,1.61-.1.53-.18,1.07-.26,1.61-.08.54-.11,1.09-.11,1.65,0,.6.09,1.04.27,1.33.18.29.45.54.82.75-.13.01-.25.02-.36.02h-.34c-.78,0-1.37-.16-1.77-.48-.41-.32-.61-.9-.61-1.75,0-.51.06-1.11.19-1.79s.25-1.4.38-2.14c.13-.74.19-1.43.19-2.07,0-.41-.07-.72-.22-.93-.15-.22-.37-.32-.66-.32-.32,0-.67.17-1.05.51-.38.34-.75.84-1.1,1.48-.35.64-.64,1.4-.86,2.28-.22.88-.33,1.85-.33,2.92,0,.32,0,.65.03.98s.05.68.09,1.04c-.13.01-.24.02-.33.03-.1,0-.18,0-.26,0-.53,0-.94-.12-1.23-.37s-.43-.66-.43-1.25c0-.33.04-.75.12-1.27.08-.52.18-1.07.29-1.66.11-.59.2-1.19.29-1.78.08-.6.12-1.15.12-1.66,0-.84-.29-1.26-.88-1.26-.32,0-.67.17-1.05.51-.38.34-.75.83-1.1,1.47s-.64,1.39-.86,2.27c-.22.88-.33,1.86-.33,2.94,0,.32,0,.65.03.98s.05.68.09,1.04c-.13.01-.24.02-.33.03-.1,0-.18,0-.26,0-.53,0-.94-.12-1.23-.37-.29-.25-.43-.66-.43-1.25,0-.22.04-.58.11-1.08s.17-1.09.28-1.76c.11-.67.2-1.37.28-2.09.08-.72.11-1.4.11-2.03,0-.5-.03-.98-.08-1.47s-.13-.95-.25-1.39c.55.2.97.47,1.26.8.29.33.5.7.61,1.12.11.41.17.87.17,1.36,0,.15,0,.3,0,.46,0,.15-.02.31-.05.48l.13.02Z" fill="#fff"></path><path d="M118.37,136.9c-.67,0-1.27-.2-1.8-.59-.53-.39-.94-.94-1.24-1.65-.3-.71-.45-1.51-.45-2.41s.14-1.81.41-2.62.66-1.51,1.15-2.11c.5-.6,1.08-1.06,1.75-1.4s1.39-.51,2.16-.51c.94,0,1.65.24,2.14.71s.72,1.16.72,2.06c0,.67-.18,1.28-.55,1.82-.37.54-.87.96-1.52,1.27-.64.31-1.38.46-2.2.46-.41,0-.79-.02-1.14-.07-.36-.04-.7-.11-1.03-.18l.06-.67h.71c.74,0,1.38-.12,1.93-.37.55-.25.97-.6,1.28-1.06s.46-.99.46-1.58c0-.44-.1-.79-.31-1.03s-.51-.36-.89-.36c-.48,0-.92.18-1.3.54s-.71.83-.97,1.41c-.27.58-.47,1.2-.61,1.86-.14.66-.21,1.29-.21,1.89,0,1.12.17,1.96.51,2.53.34.57.84.85,1.5.85,1.25,0,2.27-.62,3.07-1.87.47.08.71.25.71.52-.55.89-1.17,1.54-1.86,1.95-.69.41-1.51.62-2.45.62Z" fill="#fff"></path><path d="M128.09,130.02c.33-.86.74-1.63,1.23-2.29s1-1.18,1.54-1.55c.53-.38,1.03-.56,1.49-.56.75,0,1.27.25,1.55.73s.43,1.15.43,1.97c0,.61-.06,1.28-.18,2-.12.72-.25,1.47-.37,2.23-.13.76-.19,1.51-.19,2.25,0,.6.09,1.04.27,1.33s.45.54.82.75c-.13.01-.25.02-.36.02h-.34c-.85,0-1.46-.16-1.83-.48-.37-.32-.55-.9-.55-1.75,0-.38.04-.82.11-1.31.08-.49.17-1,.27-1.54.1-.54.19-1.08.27-1.62.08-.54.11-1.05.11-1.54,0-.84-.25-1.26-.76-1.26-.36,0-.75.17-1.19.52-.44.35-.86.85-1.26,1.5s-.73,1.42-.99,2.33c-.26.9-.39,1.9-.39,2.99,0,.29,0,.59.02.91s.04.63.1.96c-.13.01-.24.02-.33.03-.1,0-.18,0-.26,0-.55,0-.96-.13-1.25-.38-.29-.25-.43-.67-.43-1.26,0-.28.04-.68.12-1.19.08-.51.17-1.1.28-1.75.1-.65.19-1.32.28-2.01.08-.69.12-1.36.12-1.99,0-.5-.03-.98-.08-1.47s-.13-.95-.25-1.39c.79.32,1.32.76,1.6,1.32.28.56.42,1.21.42,1.94,0,.24,0,.49-.03.74-.02.25-.05.51-.09.78l.11.02Z" fill="#fff"></path><path d="M143.43,125.67c.01.06.02.14.03.23,0,.09,0,.18,0,.27,0,.56-.11.93-.32,1.13-.22.19-.51.29-.88.29-.52,0-1,0-1.44,0s-.86,0-1.27.03c-.41.03-.82.09-1.25.19-.43.1-.89.26-1.4.48-.01-.08-.02-.17-.03-.27,0-.1,0-.2,0-.29,0-.44.1-.78.31-1,.21-.22.49-.37.85-.44s.75-.11,1.18-.11c.31,0,.62,0,.93.03.32.02.62.03.92.03.44,0,.88-.04,1.31-.1.43-.07.78-.22,1.06-.45ZM139.84,135.41c0,.53.02,1,.07,1.4s.11.7.2.89c-.48-.18-.87-.42-1.17-.71s-.51-.67-.64-1.12c-.13-.44-.19-.97-.19-1.58,0-.79.06-1.57.19-2.36.13-.78.27-1.6.44-2.44.17-.84.31-1.75.44-2.73.13-.97.19-2.04.19-3.21,0-.2,0-.41,0-.62,0-.21,0-.42,0-.62.57.09,1.02.34,1.34.76s.49,1,.49,1.75c0,.69-.07,1.46-.2,2.31-.13.85-.29,1.75-.47,2.7-.18.95-.33,1.89-.47,2.84-.13.95-.2,1.86-.2,2.74Z" fill="#fff"></path><path d="M154.45,136.62c-.06.04-.21.09-.44.16-.23.07-.45.1-.67.1-.13,0-.24-.02-.34-.07-.1-.04-.17-.12-.19-.22-.22-.86-.41-1.8-.58-2.81-.17-1.01-.34-2.02-.51-3.02-.17-1-.37-1.93-.58-2.78-.22-.84-.49-1.53-.82-2.05.22-.15.43-.27.64-.36.21-.09.45-.13.71-.13.43,0,.77.19,1,.56.23.38.41.89.53,1.54.12.66.22,1.41.31,2.25s.18,1.75.3,2.71c.11.96.29,1.92.51,2.89l-.44-.27c.33-.64.68-1.32,1.05-2.04.37-.72.72-1.46,1.07-2.2.34-.74.65-1.47.93-2.17.28-.71.5-1.36.67-1.96.17-.6.25-1.12.25-1.55.42.28.72.56.91.83.18.27.28.58.28.91,0,.36-.11.8-.32,1.33-.22.53-.5,1.13-.85,1.78-.35.66-.73,1.35-1.14,2.08-.41.73-.82,1.47-1.21,2.23-.39.76-.74,1.51-1.05,2.26Z" fill="#fff"></path><path d="M167.36,133.37c-.24.66-.59,1.26-1.04,1.78-.45.53-.95.94-1.51,1.24-.55.3-1.12.45-1.69.45-.85,0-1.52-.33-1.99-.99-.48-.66-.72-1.59-.72-2.78,0-.95.14-1.85.41-2.7.27-.84.65-1.58,1.12-2.22.48-.63,1.03-1.13,1.67-1.5.64-.36,1.32-.54,2.04-.54.22,0,.44.02.69.07.24.04.51.11.82.2-.69.17-1.32.45-1.9.86-.58.41-1.07.9-1.49,1.47s-.73,1.21-.96,1.91-.34,1.44-.34,2.21.13,1.37.4,1.78c.27.41.65.62,1.14.62.52,0,1.02-.21,1.49-.62s.9-.97,1.28-1.68c.38-.71.68-1.51.9-2.4.22-.9.32-1.83.32-2.79,0-.33-.01-.67-.04-1.02s-.06-.66-.11-.92c.13-.01.24-.02.34-.03.1,0,.2,0,.29,0,.52,0,.92.13,1.19.4s.41.66.41,1.16c0,.33-.04.76-.13,1.28-.09.52-.19,1.11-.31,1.75s-.23,1.33-.32,2.04c-.09.71-.14,1.42-.14,2.12,0,.55.04,1.02.13,1.41.09.39.24.84.46,1.33-.81-.17-1.4-.52-1.75-1.07-.36-.55-.53-1.35-.53-2.4v-.22s0-.09.02-.14l-.13-.04Z" fill="#fff"></path><path d="M175.64,130.02c.33-.86.74-1.63,1.23-2.29.49-.66,1-1.18,1.54-1.55s1.03-.56,1.49-.56c.75,0,1.27.25,1.55.73.29.49.43,1.15.43,1.97,0,.61-.06,1.28-.18,2s-.24,1.47-.37,2.23c-.13.76-.19,1.51-.19,2.25,0,.6.09,1.04.27,1.33.18.29.45.54.82.75-.13.01-.25.02-.36.02h-.34c-.85,0-1.46-.16-1.83-.48-.37-.32-.55-.9-.55-1.75,0-.38.04-.82.11-1.31.08-.49.17-1,.27-1.54.1-.54.19-1.08.27-1.62s.11-1.05.11-1.54c0-.84-.25-1.26-.76-1.26-.36,0-.75.17-1.19.52s-.86.85-1.26,1.5c-.4.65-.73,1.42-.99,2.33-.26.9-.39,1.9-.39,2.99,0,.29,0,.59.02.91s.04.63.1.96c-.13.01-.24.02-.33.03-.1,0-.18,0-.26,0-.55,0-.96-.13-1.25-.38-.29-.25-.43-.67-.43-1.26,0-.28.04-.68.12-1.19.08-.51.17-1.1.28-1.75s.19-1.32.28-2.01c.08-.69.12-1.36.12-1.99,0-.5-.03-.98-.08-1.47s-.13-.95-.25-1.39c.79.32,1.32.76,1.6,1.32.28.56.42,1.21.42,1.94,0,.24,0,.49-.03.74-.02.25-.05.51-.09.78l.11.02Z" fill="#fff"></path><path d="M193.96,129.56c.33-.98.68-1.76,1.06-2.34.37-.58.75-.99,1.13-1.25.38-.25.72-.38,1.03-.38.37,0,.67.1.91.3.23.2.41.47.53.79.12.32.18.67.18,1.04,0,.41-.07.79-.2,1.16-.13.37-.34.67-.63.9-.29.23-.66.34-1.12.34-.08,0-.15,0-.23,0-.08,0-.16-.02-.25-.03.15-.22.3-.51.44-.89s.21-.71.21-1.02c0-.2-.04-.37-.12-.5-.08-.13-.23-.19-.43-.19-.28,0-.59.17-.92.51s-.66.83-.97,1.47c-.31.64-.57,1.43-.76,2.35-.2.93-.29,1.98-.29,3.17,0,.25.01.51.04.78.03.27.04.55.06.84-.13.01-.24.02-.32.03-.09,0-.17,0-.25,0-.55,0-.96-.13-1.25-.38-.29-.25-.43-.67-.43-1.26,0-.28.04-.68.12-1.19.08-.51.17-1.1.28-1.75s.19-1.32.28-2.01c.08-.69.12-1.36.12-1.99,0-.5-.03-.98-.08-1.47s-.13-.95-.25-1.39c.79.32,1.32.76,1.6,1.32.28.56.42,1.21.42,1.94,0,.13,0,.28,0,.47,0,.18-.02.38-.05.58l.15.04Z" fill="#fff"></path><path d="M208.25,137.02c-.55-.22-.97-.49-1.27-.83s-.5-.72-.62-1.14c-.12-.43-.17-.89-.17-1.4,0-.2,0-.41.03-.62.02-.21.04-.43.07-.66l-.15-.04c-.29.84-.65,1.58-1.09,2.23s-.88,1.15-1.34,1.52-.9.54-1.31.54c-.57,0-1.01-.14-1.33-.43s-.53-.67-.66-1.14c-.13-.48-.19-1.01-.19-1.59,0-.67.05-1.33.16-1.97.11-.64.21-1.27.32-1.88.1-.61.15-1.21.15-1.79,0-.36-.02-.71-.06-1.05-.04-.34-.11-.69-.21-1.05.48,0,.91.05,1.27.15s.65.3.86.58.31.72.31,1.31c0,.46-.07,1.01-.2,1.67-.13.66-.27,1.33-.4,2.03s-.2,1.35-.2,1.96c0,.47.07.82.21,1.06.14.24.36.35.67.35s.6-.15.92-.44c.32-.29.62-.69.92-1.2.29-.51.56-1.09.79-1.75.24-.65.42-1.35.55-2.08.13-.73.2-1.46.2-2.2,0-.25,0-.51-.03-.78-.02-.27-.05-.52-.08-.76.1-.01.21-.02.31-.03.11,0,.21,0,.29,0,.28,0,.54.04.79.13s.45.26.61.5c.16.25.24.6.24,1.06,0,.24-.04.6-.11,1.07-.07.47-.16,1.01-.26,1.61-.1.6-.19,1.23-.26,1.87-.07.64-.1,1.26-.1,1.86s.03,1.16.08,1.72.15,1.1.29,1.62Z" fill="#fff"></path><path d="M214.56,137c-1.14,0-2.02-.23-2.61-.69-.6-.46-.9-1.01-.9-1.66,0-.55.15-.99.46-1.33.3-.34.67-.5,1.11-.5.1,0,.21,0,.31.03.11.02.22.06.33.12-.13.17-.23.36-.31.59-.08.23-.11.45-.11.67,0,.45.14.84.43,1.19.29.35.73.53,1.33.53.29,0,.58-.06.86-.17.28-.11.51-.29.7-.52.18-.23.28-.51.28-.86,0-.38-.1-.72-.31-1.01-.21-.29-.48-.57-.82-.82-.34-.25-.69-.51-1.06-.76-.37-.25-.72-.53-1.06-.83-.34-.3-.61-.64-.82-1.03s-.31-.84-.31-1.36c0-.6.16-1.13.47-1.59s.75-.83,1.31-1.1,1.22-.4,1.98-.4c.69,0,1.24.11,1.67.32.43.22.73.49.92.83.19.34.29.69.29,1.06,0,.45-.13.85-.38,1.21s-.6.54-1.05.54c-.09,0-.19-.02-.31-.05-.12-.03-.25-.07-.39-.12.18-.22.3-.46.38-.72s.11-.48.11-.65c0-.46-.15-.8-.46-1.03-.31-.23-.64-.34-1.01-.34-.27,0-.53.05-.79.16-.26.11-.47.28-.64.51-.17.23-.25.51-.25.86,0,.41.11.78.33,1.11.22.33.5.64.85.92.34.28.71.56,1.1.83.39.27.75.56,1.1.85.34.29.63.62.85.97.22.36.33.76.33,1.2,0,.6-.17,1.12-.5,1.58-.33.46-.79.82-1.37,1.08-.58.26-1.26.39-2.02.39Z" fill="#fff"></path><path d="M227.22,125.67c.01.06.02.14.03.23,0,.09,0,.18,0,.27,0,.56-.11.93-.32,1.13-.22.19-.51.29-.88.29-.52,0-1,0-1.44,0-.44,0-.86,0-1.27.03-.41.03-.82.09-1.25.19-.43.1-.89.26-1.4.48-.01-.08-.02-.17-.03-.27,0-.1,0-.2,0-.29,0-.44.11-.78.32-1,.21-.22.49-.37.85-.44.36-.07.75-.11,1.18-.11.31,0,.62,0,.93.03.32.02.62.03.92.03.44,0,.88-.04,1.31-.1.43-.07.78-.22,1.06-.45ZM223.64,135.41c0,.53.02,1,.07,1.4s.11.7.2.89c-.48-.18-.87-.42-1.17-.71s-.51-.67-.64-1.12c-.13-.44-.19-.97-.19-1.58,0-.79.06-1.57.19-2.36.13-.78.27-1.6.44-2.44.17-.84.31-1.75.44-2.73s.19-2.04.19-3.21c0-.2,0-.41,0-.62,0-.21,0-.42,0-.62.57.09,1.02.34,1.34.76s.49,1,.49,1.75c0,.69-.07,1.46-.2,2.31-.13.85-.29,1.75-.47,2.7s-.33,1.89-.47,2.84c-.13.95-.2,1.86-.2,2.74Z" fill="#fff"></path><path d="M237.62,129.14c.39-1.13.92-2,1.57-2.61.65-.61,1.37-.92,2.15-.92.5,0,.96.17,1.4.51.44.34.8.82,1.08,1.44.28.62.42,1.34.42,2.18,0,.95-.12,1.84-.37,2.65-.25.81-.59,1.53-1.03,2.14-.44.61-.95,1.09-1.54,1.43-.58.34-1.22.51-1.91.51-.18,0-.36-.02-.55-.05-.19-.03-.38-.07-.57-.12.65-.15,1.22-.46,1.71-.93.49-.46.9-1.01,1.22-1.63s.57-1.27.73-1.95.25-1.3.25-1.87c0-.39-.05-.79-.15-1.17-.1-.39-.27-.71-.51-.97-.24-.26-.57-.39-.99-.39s-.83.19-1.23.58c-.4.39-.77.91-1.1,1.56-.33.65-.59,1.4-.79,2.23-.2.83-.29,1.69-.29,2.56,0,.43.03.87.08,1.31.06.44.15.87.28,1.31-.45-.15-.83-.41-1.16-.76-.33-.36-.58-.81-.75-1.35s-.26-1.16-.26-1.83c0-.76.06-1.6.19-2.53.13-.92.28-1.9.45-2.93.17-1.03.32-2.09.45-3.19s.19-2.21.19-3.33c0-.44-.01-.89-.04-1.34-.03-.45-.07-.89-.13-1.33.5.18.88.45,1.15.81s.46.79.57,1.29c.11.5.16,1.02.16,1.58,0,.5-.05,1.11-.14,1.83-.1.72-.21,1.53-.33,2.41-.13.88-.24,1.82-.34,2.81l.15.04Z" fill="#fff"></path><path d="M250.32,136.9c-.67,0-1.27-.2-1.8-.59-.53-.39-.94-.94-1.24-1.65-.3-.71-.45-1.51-.45-2.41s.14-1.81.41-2.62.66-1.51,1.15-2.11c.5-.6,1.08-1.06,1.75-1.4.67-.34,1.39-.51,2.16-.51.94,0,1.65.24,2.14.71s.72,1.16.72,2.06c0,.67-.18,1.28-.55,1.82-.37.54-.87.96-1.52,1.27-.64.31-1.38.46-2.2.46-.41,0-.79-.02-1.14-.07-.36-.04-.7-.11-1.03-.18l.06-.67h.71c.74,0,1.38-.12,1.93-.37s.97-.6,1.28-1.06c.3-.46.46-.99.46-1.58,0-.44-.1-.79-.31-1.03s-.51-.36-.89-.36c-.48,0-.92.18-1.3.54s-.71.83-.97,1.41c-.27.58-.47,1.2-.61,1.86-.14.66-.21,1.29-.21,1.89,0,1.12.17,1.96.51,2.53.34.57.84.85,1.5.85,1.25,0,2.27-.62,3.07-1.87.47.08.71.25.71.52-.55.89-1.17,1.54-1.86,1.95-.69.41-1.51.62-2.45.62Z" fill="#fff"></path><path d="M263.91,133.53c-.28.64-.64,1.18-1.08,1.63s-.91.8-1.41,1.04c-.5.24-1,.36-1.5.36-.67,0-1.23-.17-1.68-.51-.44-.34-.77-.8-.98-1.37s-.31-1.2-.31-1.89c0-.6.08-1.22.26-1.87s.42-1.28.75-1.89c.33-.61.74-1.16,1.22-1.64.48-.48,1.04-.87,1.67-1.15.63-.29,1.33-.43,2.11-.43.23,0,.43.04.6.13s.3.23.39.42c-.8.17-1.51.45-2.12.87-.61.41-1.12.91-1.53,1.49-.41.58-.72,1.2-.93,1.86-.21.66-.31,1.33-.31,2,0,.43.06.84.17,1.22.11.38.3.69.55.92.25.23.58.34.97.34.52,0,.99-.14,1.41-.42.42-.28.79-.66,1.1-1.13s.57-1.02.76-1.64c.2-.62.33-1.27.39-1.96.09-.92.18-1.67.29-2.26.1-.59.22-1.07.36-1.43.14-.36.31-.64.51-.83.2-.19.46-.34.76-.46-.04.29-.08.59-.12.89s-.08.59-.1.89c-.03.29-.04.59-.04.9,0,1.63-.05,3.14-.15,4.53-.1,1.39-.26,2.66-.49,3.79s-.51,2.14-.86,3c-.35.86-.77,1.59-1.27,2.18s-1.07,1.04-1.71,1.33-1.37.45-2.18.45c-.66,0-1.21-.11-1.65-.33s-.77-.5-.99-.85c-.22-.34-.33-.69-.33-1.05,0-.53.15-1.01.46-1.43.31-.42.72-.63,1.24-.63.14,0,.28.02.42.05.14.03.29.08.46.14-.2.14-.38.36-.51.65-.14.29-.21.58-.21.88,0,.43.14.77.41,1.02s.65.37,1.13.37c.46,0,.9-.11,1.33-.32.43-.22.83-.61,1.2-1.18s.7-1.4.98-2.47.51-2.47.68-4.19l-.13-.02Z" fill="#fff"></path><path d="M271.39,134.94c0,.46.02.85.06,1.19s.1.59.17.77c-.5-.18-.89-.42-1.17-.71s-.49-.67-.6-1.11c-.12-.44-.17-.97-.17-1.59,0-.56.05-1.18.15-1.87s.2-1.39.31-2.1c.1-.71.15-1.39.15-2.04,0-.33,0-.66,0-.98,0-.32-.04-.64-.1-.96.09-.01.18-.02.29-.03.1,0,.19,0,.27,0,.57,0,.99.13,1.24.38.25.25.38.67.38,1.26,0,.37-.08.94-.23,1.72-.15.78-.31,1.68-.47,2.73-.16,1.04-.25,2.16-.26,3.36ZM272.25,123.91c-.15.05-.32.1-.5.13-.18.04-.36.06-.53.06s-.36-.03-.53-.08c-.18-.06-.33-.16-.45-.31-.12-.15-.18-.34-.18-.58,0-.22.04-.43.12-.63s.15-.41.23-.63c.15-.06.32-.11.5-.14.18-.03.36-.05.52-.05.18,0,.36.03.53.09.18.06.33.16.45.3s.18.34.18.59c0,.2-.04.41-.11.62-.08.21-.15.42-.23.64Z" fill="#fff"></path><path d="M277.97,130.02c.33-.86.74-1.63,1.23-2.29.49-.66,1-1.18,1.54-1.55s1.03-.56,1.49-.56c.75,0,1.27.25,1.55.73.29.49.43,1.15.43,1.97,0,.61-.06,1.28-.18,2s-.24,1.47-.37,2.23c-.13.76-.19,1.51-.19,2.25,0,.6.09,1.04.27,1.33.18.29.45.54.82.75-.13.01-.25.02-.36.02h-.34c-.85,0-1.46-.16-1.83-.48-.37-.32-.55-.9-.55-1.75,0-.38.04-.82.11-1.31.08-.49.17-1,.27-1.54.1-.54.19-1.08.27-1.62s.11-1.05.11-1.54c0-.84-.25-1.26-.76-1.26-.36,0-.75.17-1.19.52s-.86.85-1.26,1.5c-.4.65-.73,1.42-.99,2.33-.26.9-.39,1.9-.39,2.99,0,.29,0,.59.02.91s.04.63.1.96c-.13.01-.24.02-.33.03-.1,0-.18,0-.26,0-.55,0-.96-.13-1.25-.38-.29-.25-.43-.67-.43-1.26,0-.28.04-.68.12-1.19.08-.51.17-1.1.28-1.75s.19-1.32.28-2.01c.08-.69.12-1.36.12-1.99,0-.5-.03-.98-.08-1.47s-.13-.95-.25-1.39c.79.32,1.32.76,1.6,1.32.28.56.42,1.21.42,1.94,0,.24,0,.49-.03.74-.02.25-.05.51-.09.78l.11.02Z" fill="#fff"></path><path d="M293.3,125.67c.01.06.02.14.03.23,0,.09,0,.18,0,.27,0,.56-.11.93-.32,1.13-.22.19-.51.29-.88.29-.52,0-1,0-1.44,0-.44,0-.86,0-1.27.03-.41.03-.82.09-1.25.19-.43.1-.89.26-1.4.48-.01-.08-.02-.17-.03-.27,0-.1,0-.2,0-.29,0-.44.11-.78.32-1,.21-.22.49-.37.85-.44.36-.07.75-.11,1.18-.11.31,0,.62,0,.93.03.32.02.62.03.92.03.44,0,.88-.04,1.31-.1.43-.07.78-.22,1.06-.45ZM289.71,135.41c0,.53.02,1,.07,1.4s.11.7.2.89c-.48-.18-.87-.42-1.17-.71s-.51-.67-.64-1.12c-.13-.44-.19-.97-.19-1.58,0-.79.06-1.57.19-2.36.13-.78.27-1.6.44-2.44.17-.84.31-1.75.44-2.73s.19-2.04.19-3.21c0-.2,0-.41,0-.62,0-.21,0-.42,0-.62.57.09,1.02.34,1.34.76s.49,1,.49,1.75c0,.69-.07,1.46-.2,2.31-.13.85-.29,1.75-.47,2.7s-.33,1.89-.47,2.84c-.13.95-.2,1.86-.2,2.74Z" fill="#fff"></path><path d="M309.34,136.9c-.78,0-1.37-.16-1.77-.48-.41-.32-.61-.9-.61-1.75,0-.38.04-.82.11-1.31.08-.49.17-1,.27-1.54.1-.54.19-1.08.27-1.62s.11-1.05.11-1.54c0-.84-.29-1.26-.88-1.26-.33,0-.71.17-1.12.52-.42.35-.83.85-1.22,1.5-.39.65-.72,1.42-.98,2.33-.26.9-.39,1.9-.39,2.99,0,.29,0,.59.02.91s.04.63.1.96c-.11.01-.21.02-.3.03-.08,0-.16,0-.22,0-.58,0-1.02-.12-1.32-.37-.29-.25-.44-.66-.44-1.25,0-.42.04-.99.13-1.7s.2-1.53.33-2.46c.13-.93.27-1.93.41-2.99.14-1.07.25-2.17.34-3.31s.13-2.27.13-3.38c0-.52-.02-.98-.06-1.36-.04-.39-.09-.68-.17-.87.51.18.91.41,1.19.71.29.29.49.66.62,1.09.13.43.19.95.19,1.54,0,.52-.04,1.19-.11,2.01-.08.82-.18,1.73-.31,2.74-.13,1-.27,2.07-.42,3.18l.11.02c.32-.9.72-1.7,1.2-2.4s.99-1.25,1.53-1.64c.53-.39,1.03-.59,1.49-.59.81,0,1.37.25,1.67.73s.45,1.15.45,1.97c0,.71-.06,1.43-.18,2.15-.12.72-.25,1.44-.37,2.16-.13.72-.19,1.45-.19,2.18,0,.6.09,1.04.27,1.33s.45.54.82.75c-.13.01-.25.02-.36.02h-.34Z" fill="#fff"></path><path d="M314.94,134.94c0,.46.02.85.06,1.19s.1.59.17.77c-.5-.18-.89-.42-1.17-.71s-.49-.67-.6-1.11c-.12-.44-.17-.97-.17-1.59,0-.56.05-1.18.15-1.87s.2-1.39.31-2.1c.1-.71.15-1.39.15-2.04,0-.33,0-.66,0-.98,0-.32-.04-.64-.1-.96.09-.01.18-.02.29-.03.1,0,.19,0,.27,0,.57,0,.99.13,1.24.38.25.25.38.67.38,1.26,0,.37-.08.94-.23,1.72-.15.78-.31,1.68-.47,2.73-.16,1.04-.25,2.16-.26,3.36ZM315.8,123.91c-.15.05-.32.1-.5.13-.18.04-.36.06-.53.06s-.36-.03-.53-.08c-.18-.06-.33-.16-.45-.31-.12-.15-.18-.34-.18-.58,0-.22.04-.43.12-.63s.15-.41.23-.63c.15-.06.32-.11.5-.14.18-.03.36-.05.52-.05.18,0,.36.03.53.09.18.06.33.16.45.3s.18.34.18.59c0,.2-.04.41-.11.62-.08.21-.15.42-.23.64Z" fill="#fff"></path><path d="M322.13,136.9c-.67,0-1.27-.2-1.8-.59-.53-.39-.94-.94-1.24-1.65-.3-.71-.45-1.51-.45-2.41s.14-1.81.41-2.62.66-1.51,1.15-2.11c.5-.6,1.08-1.06,1.75-1.4.67-.34,1.39-.51,2.16-.51.94,0,1.65.24,2.14.71s.72,1.16.72,2.06c0,.67-.18,1.28-.55,1.82-.37.54-.87.96-1.52,1.27-.64.31-1.38.46-2.2.46-.41,0-.79-.02-1.14-.07-.36-.04-.7-.11-1.03-.18l.06-.67h.71c.74,0,1.38-.12,1.93-.37s.97-.6,1.28-1.06c.3-.46.46-.99.46-1.58,0-.44-.1-.79-.31-1.03s-.51-.36-.89-.36c-.48,0-.92.18-1.3.54s-.71.83-.97,1.41c-.27.58-.47,1.2-.61,1.86-.14.66-.21,1.29-.21,1.89,0,1.12.17,1.96.51,2.53.34.57.84.85,1.5.85,1.25,0,2.27-.62,3.07-1.87.47.08.71.25.71.52-.55.89-1.17,1.54-1.86,1.95-.69.41-1.51.62-2.45.62Z" fill="#fff"></path><path d="M331.96,129.56c.33-.98.68-1.76,1.06-2.34.37-.58.75-.99,1.13-1.25.38-.25.72-.38,1.03-.38.37,0,.67.1.91.3.23.2.41.47.53.79.12.32.18.67.18,1.04,0,.41-.07.79-.2,1.16-.13.37-.34.67-.63.9-.29.23-.66.34-1.12.34-.08,0-.15,0-.23,0-.08,0-.16-.02-.25-.03.15-.22.3-.51.44-.89s.21-.71.21-1.02c0-.2-.04-.37-.12-.5-.08-.13-.23-.19-.43-.19-.28,0-.59.17-.92.51s-.66.83-.97,1.47c-.31.64-.57,1.43-.76,2.35-.2.93-.29,1.98-.29,3.17,0,.25.01.51.04.78.03.27.04.55.06.84-.13.01-.24.02-.32.03-.09,0-.17,0-.25,0-.55,0-.96-.13-1.25-.38-.29-.25-.43-.67-.43-1.26,0-.28.04-.68.12-1.19.08-.51.17-1.1.28-1.75s.19-1.32.28-2.01c.08-.69.12-1.36.12-1.99,0-.5-.03-.98-.08-1.47s-.13-.95-.25-1.39c.79.32,1.32.76,1.6,1.32.28.56.42,1.21.42,1.94,0,.13,0,.28,0,.47,0,.18-.02.38-.05.58l.15.04Z" fill="#fff"></path></g></svg> 