<?xml version="1.0" encoding="UTF-8"?>
<svg id="Laag_2" data-name="Laag 2" xmlns="http://www.w3.org/2000/svg" viewBox="0 0 382.32 106.1">
  <defs>
    <style>
      .cls-1 {
      fill: #ffefdf;
      }
    </style>
  </defs>
  <g>
    <g>
      <path class="cls-1" d="M143.37,47.46l-10.75-31.37c-.19-.47.09-.79.61-.79h6.97c.37,0,.65.14.79.56l6.83,21.79,6.78-21.79c.14-.42.47-.56.84-.56h6.97c.51,0,.79.33.61.79l-10.75,31.37c-.14.38-.56.56-.94.56h-7.06c-.37,0-.75-.19-.89-.56Z"/>
      <path class="cls-1" d="M170.31,47.27v-31.23c0-.42.28-.75.7-.75h6.69c.42,0,.75.33.75.75v31.23c0,.42-.33.75-.75.75h-6.69c-.42,0-.7-.33-.7-.75Z"/>
      <path class="cls-1" d="M192.77,47.27v-24.78h-6.12c-.42,0-.7-.33-.7-.75v-5.7c0-.42.28-.75.7-.75h20.34c.42,0,.75.33.75.75v5.7c0,.42-.33.75-.75.75h-6.08v24.78c0,.42-.33.75-.75.75h-6.69c-.42,0-.7-.33-.7-.75Z"/>
      <path class="cls-1" d="M211.23,47.23l10.75-31.37c.14-.37.51-.56.89-.56h7.06c.37,0,.79.19.93.56l10.75,31.37c.19.47-.09.79-.61.79h-6.97c-.37,0-.7-.14-.84-.56l-1.22-3.93h-11.17l-1.22,3.93c-.14.42-.42.56-.79.56h-6.97c-.51,0-.79-.33-.61-.79ZM229.75,36.33l-3.32-10.71-3.37,10.71h6.69Z"/>
      <path class="cls-1" d="M248.92,47.27v-31.23c0-.42.28-.75.7-.75h17.11c.42,0,.7.33.7.75v5.7c0,.42-.28.75-.7.75h-9.68v5.47h9.07c.42,0,.75.33.75.75v5.75c0,.42-.33.7-.75.7h-9.07v5.66h9.63c.42,0,.75.33.75.75v5.7c0,.42-.33.75-.75.75h-17.06c-.42,0-.7-.33-.7-.75Z"/>
    </g>
    <g>
      <path class="cls-1" d="M141.77,89.69l-9.16-31.37c-.14-.47.05-.79.56-.79h6.97c.37,0,.75.14.79.56l5.56,21.09,6.08-21.09c.14-.42.37-.56.84-.56h6.31c.47,0,.7.14.84.56l6.08,21.09,5.56-21.09c.09-.42.42-.56.79-.56h6.97c.51,0,.7.33.56.79l-9.16,31.37c-.05.33-.47.56-.94.56h-6.92c-.42,0-.89-.23-.94-.56l-5.98-21.93-6.03,21.93c-.05.33-.51.56-.93.56h-6.92c-.47,0-.89-.23-.94-.56Z"/>
      <path class="cls-1" d="M187.89,89.5v-31.23c0-.42.28-.75.7-.75h17.11c.42,0,.7.33.7.75v5.7c0,.42-.28.75-.7.75h-9.68v5.47h9.07c.42,0,.75.33.75.75v5.75c0,.42-.33.7-.75.7h-9.07v5.66h9.63c.42,0,.75.33.75.75v5.7c0,.42-.33.75-.75.75h-17.07c-.42,0-.7-.33-.7-.75Z"/>
      <path class="cls-1" d="M216.07,89.5v-31.23c0-.42.28-.75.7-.75h6.69c.42,0,.75.33.75.75v24.78h9.12c.42,0,.7.28.7.7v5.8c0,.42-.28.7-.7.7h-16.55c-.42,0-.7-.33-.7-.75Z"/>
      <path class="cls-1" d="M241.33,89.5v-31.23c0-.42.28-.75.7-.75h6.69c.42,0,.75.33.75.75v24.78h9.12c.42,0,.7.28.7.7v5.8c0,.42-.28.7-.7.7h-16.55c-.42,0-.7-.33-.7-.75Z"/>
      <path class="cls-1" d="M284.74,89.78l-10.01-18.79v18.51c0,.42-.33.75-.75.75h-6.69c-.42,0-.7-.33-.7-.75v-31.23c0-.42.28-.75.7-.75h7.71c.37,0,.65.14.84.47l10.05,18.89v-18.61c0-.42.28-.75.7-.75h6.69c.42,0,.75.33.75.75v31.23c0,.42-.33.75-.75.75h-7.71c-.38,0-.66-.14-.84-.47Z"/>
      <path class="cls-1" d="M304.13,89.5v-31.23c0-.42.28-.75.7-.75h17.11c.42,0,.7.33.7.75v5.7c0,.42-.28.75-.7.75h-9.68v5.47h9.07c.42,0,.75.33.75.75v5.75c0,.42-.33.7-.75.7h-9.07v5.66h9.63c.42,0,.75.33.75.75v5.7c0,.42-.33.75-.75.75h-17.07c-.42,0-.7-.33-.7-.75Z"/>
      <path class="cls-1" d="M330.68,85.57c-.23-.28-.23-.65.05-1.03l3.51-3.97c.33-.37.65-.51,1.08-.19,2.24,2.06,3.93,2.99,6.22,2.99,2.06,0,3.6-.65,3.6-2.52,0-1.59-1.17-2.06-2.99-2.85l-3.97-1.82c-3.46-1.59-6.92-4.07-6.92-9.35,0-6.31,4.77-9.68,10.57-9.68,3.93,0,7.15,1.5,10,4.4.28.23.33.65.05,1.03l-3.46,4.16c-.23.37-.61.51-.98.28-2.1-1.68-3.6-2.43-5.33-2.43-1.96,0-2.99.98-2.99,2.34,0,1.68,1.26,2.06,3.6,3.13l3.18,1.4c3.41,1.59,7.15,3.79,7.15,9.44,0,7.06-5.89,9.91-11.31,9.91s-9.07-2.62-11.03-5.24Z"/>
      <path class="cls-1" d="M359.98,85.57c-.23-.28-.23-.65.05-1.03l3.51-3.97c.33-.37.65-.51,1.08-.19,2.24,2.06,3.93,2.99,6.22,2.99,2.06,0,3.6-.65,3.6-2.52,0-1.59-1.17-2.06-2.99-2.85l-3.97-1.82c-3.46-1.59-6.92-4.07-6.92-9.35,0-6.31,4.77-9.68,10.57-9.68,3.93,0,7.15,1.5,10,4.4.28.23.33.65.05,1.03l-3.46,4.16c-.23.37-.61.51-.98.28-2.1-1.68-3.6-2.43-5.33-2.43-1.96,0-2.99.98-2.99,2.34,0,1.68,1.26,2.06,3.6,3.13l3.18,1.4c3.41,1.59,7.15,3.79,7.15,9.44,0,7.06-5.89,9.91-11.31,9.91s-9.07-2.62-11.03-5.24Z"/>
    </g>
  </g>
  <g>
    <path class="cls-1" d="M67.83,27.41c.43,10.71,9.16,19.11,19.9,19.11s19.9-8.92,19.9-19.9-8.81-19.76-19.65-19.9h-26.6c4.14,5.73,6.43,12.68,6.46,19.84v.87-.03ZM87.73,52.77c-14.11,0-25.57-11.03-26.11-25.14v-1c-.03-7.92-3.43-15.46-9.3-20.71L46.15.46h41.9c14.19.19,25.79,11.89,25.79,26.14s-11.73,26.14-26.14,26.14"/>
    <path class="cls-1" d="M26.07,6.24c-3.38,0-6.79.87-9.92,2.68-9.38,5.43-12.71,17.52-7.41,26.98l13.3,23.03c2.89-6.46,7.76-11.92,13.98-15.52l.73-.43c9.08-5.73,11.98-17.49,6.6-26.79-3.68-6.38-10.38-9.95-17.27-9.95M24.23,75.21L3.41,39.2C-3.7,26.52.68,10.62,13.01,3.49,25.5-3.71,41.53.59,48.75,13.05c7.06,12.22,3.24,27.68-8.7,35.2l-.84.51c-6.87,3.97-11.71,10.68-13.3,18.41l-1.68,8v.03Z"/>
    <path class="cls-1" d="M56.29,60.04c-6.87,0-13.52,3.6-17.22,9.98-2.65,4.6-3.35,9.98-1.97,15.11,1.38,5.14,4.68,9.43,9.27,12.08,9.38,5.43,21.52,2.24,27.06-7.08l13.3-23.03c-7.03.73-14.19-.76-20.41-4.33l-.76-.41c-2.97-1.57-6.14-2.3-9.27-2.3M56.24,106.1c-4.43,0-8.89-1.11-13-3.49-6.03-3.49-10.35-9.14-12.17-15.9-1.81-6.76-.89-13.79,2.6-19.84,7.06-12.22,22.36-16.63,34.82-10.06l.87.49c6.89,3.95,15.08,4.78,22.6,2.32l7.79-2.57-20.95,36.28c-4.84,8.16-13.6,12.73-22.55,12.73"/>
  </g>
</svg>