<svg xmlns="http://www.w3.org/2000/svg" width="213.185" height="30" viewBox="0 0 213.185 30">
  <g id="Group_3" data-name="Group 3" transform="translate(-117.289 -254.906)">
    <g id="Group_1" data-name="Group 1" transform="translate(117.289 254.906)">
      <path id="Path_1" data-name="Path 1" d="M147.579,284.906a.726.726,0,0,1-.6-.335l-8.359-12.55-8.171,12.535a.711.711,0,0,1-.675.338.752.752,0,0,1-.6-.474l-11.811-28.289a.855.855,0,0,1,.365-1.086.716.716,0,0,1,.987.4l11.276,27.008,8.023-12.307a.722.722,0,0,1,.6-.341h0a.725.725,0,0,1,.6.334l8.219,12.339,11.336-27.1a.718.718,0,0,1,.987-.4.856.856,0,0,1,.365,1.087L148.254,284.43a.751.751,0,0,1-.6.473c-.025,0-.051,0-.075,0" transform="translate(-117.289 -254.906)" fill="#fff"/>
      <path id="Path_2" data-name="Path 2" d="M160.235,270.217a.726.726,0,0,1-.6-.335l-6.811-10.249-6.908,10.254a.721.721,0,0,1-.68.325.751.751,0,0,1-.6-.482L139.2,256.24a.854.854,0,0,1,.378-1.081.719.719,0,0,1,.982.416l4.92,12.206,6.75-10.018a.723.723,0,0,1,.6-.331h0a.725.725,0,0,1,.6.335l6.66,10.023,5.117-12.225a.716.716,0,0,1,.986-.4.855.855,0,0,1,.364,1.087l-5.646,13.489a.752.752,0,0,1-.6.473c-.026,0-.05,0-.074,0" transform="translate(-131.468 -255.025)" fill="#fff"/>
    </g>
    <g id="Group_2" data-name="Group 2" transform="translate(172.148 261.383)">
      <path id="Path_3" data-name="Path 3" d="M288.04,284.816,284.1,273.971l-4.115,10.845-3.938-10.11h-2.479L280,290.8l4.055-10.727,3.89,10.717,6.759-16.087h-2.478Z" transform="translate(-273.569 -273.755)" fill="#fff"/>
      <path id="Path_4" data-name="Path 4" d="M345.724,285.76l1.587,3.674h2.5l-7.22-16.077L335.1,289.434h2.459l1.686-3.674Zm-3.174-7.289,2.244,5.143H340.2Z" transform="translate(-313.503 -273.357)" fill="#fff"/>
      <path id="Path_5" data-name="Path 5" d="M386.957,291.19H395.3v-2.146h-6.065v-5.055h5.889v-2.146h-5.889v-3.635H395.3v-2.146h-8.347Z" transform="translate(-347.154 -275.113)" fill="#fff"/>
      <path id="Path_6" data-name="Path 6" d="M428.972,284.745a4.1,4.1,0,0,0,2.429-1.479,4.3,4.3,0,0,0,.921-2.763,4.138,4.138,0,0,0-1.47-3.311,6.68,6.68,0,0,0-4.331-1.126h-2.674v15.127h2.283V285h.411l4.32,6.193h2.793Zm-2.841-1.734v-4.8h.813q3.153,0,3.154,2.322,0,2.478-3.243,2.479Z" transform="translate(-371.095 -275.114)" fill="#fff"/>
      <path id="Path_7" data-name="Path 7" d="M490.586,280.075l3.89,10.717,6.759-16.087h-2.478l-4.183,10.11-3.939-10.845-4.115,10.845-3.938-10.11H480.1l6.428,16.1Z" transform="translate(-407.603 -273.755)" fill="#fff"/>
      <path id="Path_8" data-name="Path 8" d="M556.344,289.434l-7.22-16.077-7.485,16.077H544.1l1.685-3.674h6.476l1.587,3.674Zm-9.61-5.82,2.35-5.143,2.244,5.143Z" transform="translate(-447.538 -273.357)" fill="#fff"/>
      <path id="Path_9" data-name="Path 9" d="M586.57,278.209h3.478V291.19h2.282V278.209H595.8v-2.146H586.57Z" transform="translate(-476.697 -275.113)" fill="#fff"/>
      <path id="Path_10" data-name="Path 10" d="M623.241,291.19h8.348v-2.146h-6.065v-5.055h5.888v-2.146h-5.888v-3.635h6.065v-2.146h-8.348Z" transform="translate(-500.495 -275.113)" fill="#fff"/>
      <path id="Path_11" data-name="Path 11" d="M667.683,283.266a4.3,4.3,0,0,0,.921-2.763,4.137,4.137,0,0,0-1.47-3.311,6.677,6.677,0,0,0-4.33-1.126H660.13v15.127h2.282V285h.412l4.32,6.193h2.792l-4.683-6.447A4.1,4.1,0,0,0,667.683,283.266Zm-5.271-.255v-4.8h.814q3.154,0,3.154,2.322,0,2.478-3.243,2.479Z" transform="translate(-524.435 -275.114)" fill="#fff"/>
      <path id="Path_12" data-name="Path 12" d="M705.816,283.472a6.444,6.444,0,0,0-2.694-1.818l-1.509-.616q-1.645-.678-1.646-1.784a1.669,1.669,0,0,1,.627-1.332,2.335,2.335,0,0,1,1.578-.539,2.308,2.308,0,0,1,1.263.313,3.2,3.2,0,0,1,.99,1.176l1.851-1.1a4.528,4.528,0,0,0-4.085-2.547,4.707,4.707,0,0,0-3.242,1.156,3.643,3.643,0,0,0-1.3,2.851q0,2.527,3.106,3.84l1.46.607a6.662,6.662,0,0,1,.98.514,3.057,3.057,0,0,1,.668.578,2.024,2.024,0,0,1,.382.676,2.522,2.522,0,0,1,.124.808,2.471,2.471,0,0,1-.7,1.812,2.607,2.607,0,0,1-3.83-.264,3.933,3.933,0,0,1-.549-1.842l-2.313.509a5.375,5.375,0,0,0,1.577,3.282,4.655,4.655,0,0,0,3.253,1.166,4.769,4.769,0,0,0,3.477-1.372,4.62,4.62,0,0,0,1.392-3.448A4.1,4.1,0,0,0,705.816,283.472Z" transform="translate(-548.342 -274.57)" fill="#fff"/>
    </g>
  </g>
</svg>
